<svg id="f1a205ba-a2ac-4fe3-ace7-e24fde865641" data-name="Layer 1" xmlns="http://www.w3.org/2000/svg"
  xmlns:xlink="http://www.w3.org/1999/xlink" viewBox="0 0 50 50">
  <defs>
    <linearGradient id="fe8e653a-e0aa-4635-be79-ce3e092473b1" x1="3.34" y1="3.34" x2="46.66" y2="46.66"
      gradientUnits="userSpaceOnUse">
      <stop offset="0" stop-color="#e53985" />
      <stop offset="1" stop-color="#f59320" />
    </linearGradient>
  </defs>
  <rect x="1" y="1" width="48" height="48" rx="8" fill="url(#fe8e653a-e0aa-4635-be79-ce3e092473b1)" />
  <path
    d="M24.07,14.4A3.57,3.57,0,1,1,20.51,18,3.56,3.56,0,0,1,24.07,14.4ZM32,31c-2.62,4.48-5.15,11.77-2.61,18H21.91c-6.27-4.51-8.39-11.36-9.25-19.46a89.37,89.37,0,0,1,.51-21.81s.77.49,1.69,1c-.52,14.61,7.44,14.8,8.78,14.74,1.75-.07,11-.52,16-15.41l1.94-.48C39,19.81,36.08,24,32,31Z"
    fill="#fff" />
</svg>