<svg xmlns="http://www.w3.org/2000/svg" xmlns:xlink="http://www.w3.org/1999/xlink" width="357.314" height="46.64" viewBox="0 0 357.314 46.64">
  <defs>
    <linearGradient id="linear-gradient" x1="-1.007" y1="0.472" x2="1.806" y2="0.532" gradientUnits="objectBoundingBox">
      <stop offset="0" stop-color="#fff"/>
      <stop offset="0.043" stop-color="#fdeaeb"/>
      <stop offset="0.13" stop-color="#f8b6b8"/>
      <stop offset="0.254" stop-color="#f16368"/>
      <stop offset="0.352" stop-color="#ec1d24"/>
      <stop offset="0.4" stop-color="#eb1f23"/>
      <stop offset="0.426" stop-color="#ea2721"/>
      <stop offset="0.446" stop-color="#e9341f"/>
      <stop offset="0.463" stop-color="#e6471a"/>
      <stop offset="0.479" stop-color="#e46015"/>
      <stop offset="0.493" stop-color="#e07f0f"/>
      <stop offset="0.506" stop-color="#dca207"/>
      <stop offset="0.517" stop-color="#d8c800"/>
      <stop offset="0.523" stop-color="#c4c407"/>
      <stop offset="0.536" stop-color="#96bd18"/>
      <stop offset="0.551" stop-color="#6eb627"/>
      <stop offset="0.567" stop-color="#4cb133"/>
      <stop offset="0.583" stop-color="#30ac3e"/>
      <stop offset="0.6" stop-color="#1aa946"/>
      <stop offset="0.62" stop-color="#0ba64b"/>
      <stop offset="0.642" stop-color="#02a54e"/>
      <stop offset="0.676" stop-color="#00a550"/>
      <stop offset="0.679" stop-color="#02a551"/>
      <stop offset="0.772" stop-color="#5bc58e"/>
      <stop offset="0.853" stop-color="#a1ddbe"/>
      <stop offset="0.921" stop-color="#d4efe1"/>
      <stop offset="0.972" stop-color="#f3faf6"/>
      <stop offset="1" stop-color="#fff"/>
    </linearGradient>
  </defs>
  <g id="Group_481" data-name="Group 481" transform="translate(-132.857 -246.857)">
    <path id="Path_489" data-name="Path 489" d="M552.057,285.061H535.822V252.444a4.8,4.8,0,0,0-1.332-3.551,3.77,3.77,0,0,0-2.776-1.39,9.582,9.582,0,0,0-1.3-.063,4.192,4.192,0,0,0-4.254,2.922l-3.476,11.97H511.338a4.2,4.2,0,0,0-3.811,2.442l-5.261,11.447-9.075-26.234a4.194,4.194,0,0,0-3.875-3.124,4.151,4.151,0,0,0-4.13,2.779l-7.613,12.978H465.748c-.118-.006-.227-.028-.349-.028s-.231.022-.349.028h-.221a4.054,4.054,0,0,0-4.14,4.72c0,.009,0,.017,0,.026v7.862q0,5.147-2.418,7.9a8.74,8.74,0,0,1-6.944,2.759q-4.526,0-6.913-2.728t-2.387-7.936V253.589a4.756,4.756,0,0,0-1.272-3.472,4.588,4.588,0,0,0-3.441-1.3,4.48,4.48,0,0,0-4.774,4.774v21.2q0,9.114,4.805,13.857t13.98,4.743q9.175,0,14.012-4.774t4.836-13.826v-3.787h10.357a4.192,4.192,0,0,0,3.949-2.783l4.255-7.873,8.395,29.331a4.194,4.194,0,0,0,7.867.687l9.031-19.648h8.788a4.18,4.18,0,0,0,3.114-1.4v19.17a4.2,4.2,0,0,0,4.63,4.63h21.5q4.628,0,4.63-4Q556.688,285.062,552.057,285.061Z" transform="translate(-168.179)" fill="url(#linear-gradient)"/>
    <path id="Path_490" data-name="Path 490" d="M731.682,249.659a4.886,4.886,0,0,0-3.615,1.332,4.8,4.8,0,0,0-1.332,3.552v35.579a4.952,4.952,0,1,0,9.893,0V254.542a4.8,4.8,0,0,0-1.331-3.552A4.887,4.887,0,0,0,731.682,249.659Z" transform="translate(-333.281 -1.573)" fill="#fff"/>
    <path id="Path_491" data-name="Path 491" d="M800.728,249.515a4.5,4.5,0,0,0-2.41.666,4.209,4.209,0,0,0-1.649,2L783.1,281.86l-13.572-29.681a4.158,4.158,0,0,0-1.681-2,4.661,4.661,0,0,0-2.442-.666,5.543,5.543,0,0,0-3.551,1.268,3.9,3.9,0,0,0-1.586,3.171,4.054,4.054,0,0,0,.445,1.839l17.124,36.15a5.012,5.012,0,0,0,2.093,2.252,6.244,6.244,0,0,0,6.089,0,5.025,5.025,0,0,0,2.093-2.252l17.124-36.15a4.476,4.476,0,0,0,.444-1.9,3.9,3.9,0,0,0-1.523-3.108A5.212,5.212,0,0,0,800.728,249.515Z" transform="translate(-352.097 -1.492)" fill="#fff"/>
    <path id="Path_492" data-name="Path 492" d="M901.814,287.419H884.373V276.194h16.173q4.692,0,4.693-3.805,0-3.868-4.693-3.869H884.373V258.055h17.441q4.693,0,4.693-3.869,0-3.805-4.693-3.805H879.363a4.2,4.2,0,0,0-4.63,4.63v35.453a4.2,4.2,0,0,0,4.63,4.63h22.451q4.693,0,4.693-3.805Q906.507,287.421,901.814,287.419Z" transform="translate(-416.336 -1.978)" fill="#fff"/>
    <path id="Path_493" data-name="Path 493" d="M160.137,254.217a5.494,5.494,0,0,0-2.108-2.233,5.883,5.883,0,0,0-5.89-.031,4.853,4.853,0,0,0-2.046,2.263l-16.74,35.154a4.973,4.973,0,0,0-.5,1.984,3.723,3.723,0,0,0,1.426,2.945,4.852,4.852,0,0,0,3.224,1.208,4.128,4.128,0,0,0,2.263-.65,4.182,4.182,0,0,0,1.581-1.954l3.286-7.316h21.018l3.286,7.316a4.11,4.11,0,0,0,1.612,1.954,4.177,4.177,0,0,0,2.232.65,4.739,4.739,0,0,0,3.193-1.208,3.756,3.756,0,0,0,1.395-2.945,4.98,4.98,0,0,0-.5-1.984Zm-12.214,24.055,7.254-16.12,7.192,16.12Z" transform="translate(0 -2.426)" fill="#fff"/>
    <path id="Path_494" data-name="Path 494" d="M262.629,258.443a14.052,14.052,0,0,1,4.526.713,20.933,20.933,0,0,1,4.588,2.325,5.922,5.922,0,0,0,1.457.775,4.791,4.791,0,0,0,1.519.217,2.7,2.7,0,0,0,2.2-1.147,4.339,4.339,0,0,0,.9-2.759,4.141,4.141,0,0,0-.372-1.86,4.668,4.668,0,0,0-1.3-1.488,24.429,24.429,0,0,0-25.3-1.736,18.408,18.408,0,0,0-7.44,7.78,28.442,28.442,0,0,0,0,23.777,18.36,18.36,0,0,0,7.44,7.812,24.431,24.431,0,0,0,25.3-1.736,4.583,4.583,0,0,0,1.271-1.457,4.06,4.06,0,0,0,.4-1.891,4.341,4.341,0,0,0-.9-2.759,2.707,2.707,0,0,0-2.2-1.147,4.309,4.309,0,0,0-1.425.217,8.931,8.931,0,0,0-1.55.775,27.378,27.378,0,0,1-4.774,2.325,13.09,13.09,0,0,1-4.34.713q-11.966,0-11.965-14.756,0-7.316,3.007-11.005T262.629,258.443Z" transform="translate(-60.58 -2.188)" fill="#fff"/>
    <path id="Path_495" data-name="Path 495" d="M356.305,258.443a14.05,14.05,0,0,1,4.526.713,20.938,20.938,0,0,1,4.589,2.325,5.9,5.9,0,0,0,1.457.775,4.787,4.787,0,0,0,1.519.217,2.707,2.707,0,0,0,2.2-1.147,4.346,4.346,0,0,0,.9-2.759,4.141,4.141,0,0,0-.373-1.86,4.663,4.663,0,0,0-1.3-1.488,24.428,24.428,0,0,0-25.3-1.736,18.411,18.411,0,0,0-7.44,7.78,28.442,28.442,0,0,0,0,23.777,18.363,18.363,0,0,0,7.44,7.812,24.43,24.43,0,0,0,25.3-1.736,4.551,4.551,0,0,0,1.272-1.457,4.065,4.065,0,0,0,.4-1.891,4.348,4.348,0,0,0-.9-2.759,2.709,2.709,0,0,0-2.2-1.147,4.31,4.31,0,0,0-1.426.217,8.911,8.911,0,0,0-1.55.775,27.393,27.393,0,0,1-4.774,2.325,13.091,13.091,0,0,1-4.34.713q-11.967,0-11.966-14.756,0-7.316,3.007-11.005T356.305,258.443Z" transform="translate(-113.15 -2.188)" fill="#fff"/>
  </g>
</svg>
