<svg xmlns="http://www.w3.org/2000/svg" xmlns:xlink="http://www.w3.org/1999/xlink" width="141.078" height="138.209" viewBox="0 0 141.078 138.209">
  <defs>
    <clipPath id="clip-path">
      <rect id="Rectangle_113" data-name="Rectangle 113" width="111.99" height="116.046" fill="#f58220"/>
    </clipPath>
  </defs>
  <g id="Group_277" data-name="Group 277" transform="matrix(-0.259, 0.966, -0.966, -0.259, 141.078, 30.035)">
    <g id="Group_276" data-name="Group 276" transform="translate(0 0)" clip-path="url(#clip-path)">
      <path id="Path_425" data-name="Path 425" d="M15.454,7.991c.331,7.144.531,13.683,1.233,20.19,1.743,16.169,4.812,31.99,12.526,46.536,5.312,10.017,12.448,18.311,23,23.129a34.54,34.54,0,0,0,12.9,3.188,2.309,2.309,0,0,1,1.886.793c6.145,7.34,14.506,10.59,23.516,12.5a96.41,96.41,0,0,0,19.758,1.719c1.281,0,2.009-.254,1.61-1.645-.315-1.1.968-2.985-1.766-2.9-9.847.3-19.553-.556-28.758-4.46a27.792,27.792,0,0,1-9.023-5.857A38.893,38.893,0,0,0,84.068,97.43C89.594,94.5,94.24,90.641,96.835,84.761c3.284-7.443.98-15.067-6.155-20.547-6.057-4.652-13.1-4.486-19.454.459-8.6,6.692-12.26,19.174-8.6,29.334.194.537.7,1.291.277,1.584a3.3,3.3,0,0,1-2.515.127,33.006,33.006,0,0,1-14.812-7.565c-8.374-7.2-13.516-16.513-17.2-26.711-6.157-17.058-7.95-34.823-8.385-52.8.841-.2,1.07.481,1.429.835,3.434,3.389,6.861,6.787,10.229,10.242.8.824,1.269,1.024,2.185.083,2.058-2.112,2.118-2.052.022-4.148C28.917,10.713,23.942,5.808,19.065.806,18-.285,17.443-.254,16.4.814,11.26,6.063,6.111,11.307.795,16.374c-1.617,1.542-.4,2.061.416,2.965.875.974,1.477,1.661,2.8.237,3.563-3.835,7.344-7.467,11.444-11.586M93.6,77.034a14.166,14.166,0,0,1-3.38,9.479c-5.129,6.278-11.985,9.1-19.885,9.879a2.265,2.265,0,0,1-2.61-1.566c-4.112-8.458-1.5-20.555,5.83-26.544,3.593-2.936,7.615-4.21,12-2.051,4.756,2.343,7.645,6.169,8.048,10.8" transform="translate(0 0)" fill="#f58220"/>
    </g>
  </g>
</svg>
