<svg xmlns="http://www.w3.org/2000/svg" xmlns:xlink="http://www.w3.org/1999/xlink" width="167.453" height="167.661" viewBox="0 0 167.453 167.661">
  <defs>
    <clipPath id="clip-path">
      <rect id="Rectangle_113" data-name="Rectangle 113" width="116.444" height="120.662" fill="#f58220"/>
    </clipPath>
  </defs>
  <g id="Group_338" data-name="Group 338" transform="translate(0 79.415) rotate(-43)" opacity="0.13">
    <g id="Group_276" data-name="Group 276" transform="translate(0 0)" clip-path="url(#clip-path)">
      <path id="Path_425" data-name="Path 425" d="M16.069,8.309c.344,7.428.553,14.227,1.282,20.993,1.812,16.812,5,33.263,13.024,48.387C35.9,88.1,43.318,96.728,54.288,101.738A35.913,35.913,0,0,0,67.7,105.053a2.4,2.4,0,0,1,1.961.824c6.389,7.632,15.083,11.011,24.452,13a100.245,100.245,0,0,0,20.544,1.787c1.332,0,2.089-.264,1.674-1.711-.327-1.139,1.007-3.1-1.837-3.018-10.239.308-20.33-.578-29.9-4.637a28.9,28.9,0,0,1-9.382-6.09,40.439,40.439,0,0,0,12.2-3.9c5.746-3.046,10.576-7.058,13.275-13.172,3.415-7.739,1.019-15.666-6.4-21.364-6.3-4.837-13.622-4.664-20.227.477C65.12,74.2,61.31,87.182,65.115,97.746c.2.559.731,1.342.288,1.647a3.428,3.428,0,0,1-2.615.132,34.319,34.319,0,0,1-15.4-7.866C38.68,84.176,33.334,74.49,29.506,63.886c-6.4-17.737-8.266-36.208-8.719-54.9.874-.207,1.113.5,1.485.868,3.571,3.524,7.133,7.057,10.636,10.649.835.857,1.32,1.064,2.272.086,2.14-2.2,2.2-2.134.023-4.313C30.067,11.139,24.894,6.038,19.824.838,18.717-.3,18.137-.264,17.05.846,11.707,6.3,6.354,11.757.826,17.026c-1.682,1.6-.411,2.143.432,3.083.91,1.013,1.536,1.727,2.911.247,3.7-3.987,7.636-7.764,11.9-12.047M97.323,80.1a14.729,14.729,0,0,1-3.515,9.856c-5.333,6.527-12.462,9.465-20.676,10.272A2.355,2.355,0,0,1,70.419,98.6C66.144,89.8,68.861,77.224,76.48,71c3.736-3.052,7.918-4.377,12.475-2.132C93.9,71.3,96.9,75.279,97.323,80.1" transform="translate(0 0)" fill="#f58220"/>
    </g>
  </g>
</svg>
