<svg xmlns="http://www.w3.org/2000/svg" width="39" height="39" viewBox="0 0 39 39">
  <g id="Group_480" data-name="Group 480" transform="translate(-0.143)">
    <rect id="Rectangle_51" data-name="Rectangle 51" width="39" height="39" rx="8" transform="translate(0.143)" fill="rgba(26,210,217,0.12)"/>
    <g id="Group_48" data-name="Group 48" transform="translate(7.143 7)">
      <rect id="Rectangle_55" data-name="Rectangle 55" width="26" height="26" fill="none"/>
      <g id="Group_45" data-name="Group 45" transform="translate(1.812 2.31)">
        <path id="Path_375" data-name="Path 375" d="M-456.215,397.989h.682a.465.465,0,0,0,.076.033,3.1,3.1,0,0,1,2.46,2.026,8.866,8.866,0,0,1,.319,1.186V402a.3.3,0,0,0-.034.075,6.428,6.428,0,0,1-1.073,2.754,3.076,3.076,0,0,1-1.416,1.215.264.264,0,0,0-.21.3q.01,3.766,0,7.531c0,.405.021.812-.012,1.216a4.9,4.9,0,0,1-3.256,4.436,9.231,9.231,0,0,1-1.292.326h-.9c-.061-.015-.121-.033-.183-.044a4.925,4.925,0,0,1-4.1-3.426,10.364,10.364,0,0,1-.274-1.175c-.1,0-.217-.007-.329,0a31.91,31.91,0,0,1-6.231-.145,6.461,6.461,0,0,1-1.953-.494.878.878,0,0,1-.575-.891q.023-6.126,0-12.255a.859.859,0,0,1,.521-.861,3.634,3.634,0,0,1,.453-.184,11.26,11.26,0,0,1,2.722-.458,30.272,30.272,0,0,1,6.779.169,10.3,10.3,0,0,1,1.678.449.819.819,0,0,1,.6.9c-.031.74-.005,1.481-.011,2.22a.25.25,0,0,0,.153.265,4.38,4.38,0,0,1,2.561,4.09,4.379,4.379,0,0,1-2.559,4.09.248.248,0,0,0-.156.262c.007.491,0,.981,0,1.472a.575.575,0,0,1-.306.569,7.187,7.187,0,0,1-1.1.445c-.419.12-.857.176-1.3.263.026.187.044.37.079.55a4.073,4.073,0,0,0,5.375,3.035,4.09,4.09,0,0,0,2.7-3.914c.014-2.825,0-5.649.007-8.475a.225.225,0,0,0-.168-.247,2.793,2.793,0,0,1-.544-.284,4.3,4.3,0,0,1-1.4-1.771,4.928,4.928,0,0,1-.518-3.305,3.315,3.315,0,0,1,2.335-2.612C-456.474,398.049-456.345,398.022-456.215,397.989Zm-7.351,6.375a3.644,3.644,0,0,0-3.654,3.594,3.642,3.642,0,0,0,3.575,3.694,3.641,3.641,0,0,0,3.687-3.6A3.644,3.644,0,0,0-463.566,404.364ZM-473,401.179a26.929,26.929,0,0,0,9.736,0A26.81,26.81,0,0,0-473,401.179Z" transform="translate(474.51 -397.989)" fill="#1ad2d9"/>
        <path id="Path_376" data-name="Path 376" d="M-465.808,404.5c0,.12.007.242,0,.362a.741.741,0,0,0,.224.637.846.846,0,0,1-.094,1.247.9.9,0,0,1-1.262-.087.874.874,0,0,1,.078-1.255.367.367,0,0,0,.143-.326c-.007-.377,0-.753,0-1.13a1.416,1.416,0,0,1,.027-.274.423.423,0,0,1,.429-.341.406.406,0,0,1,.427.34c.034.273.031.551.045.827Z" transform="translate(477.186 -396.04)" fill="#1ad2d9"/>
      </g>
    </g>
  </g>
</svg>
