<svg version="1.2" xmlns="http://www.w3.org/2000/svg" viewBox="0 0 94 94" width="94" height="94"><style>.a{fill:#53eaff}.b{fill:#fff}</style><path class="a" d="m0 7c0-3.9 3.1-7 7-7h79.3c3.9 0 7 3.1 7 7v79.3c0 3.9-3.1 7-7 7h-79.3c-3.9 0-7-3.1-7-7z"/><path fill-rule="evenodd" class="b" d="m66.4 18.3h1.8q0.1 0.1 0.1 0.1 0 0 0 0 0.1 0 0.1 0 0 0 0 0 1.1 0.2 2.2 0.7 1 0.4 1.8 1.1 0.9 0.7 1.6 1.6 0.6 1 1 2 0.1 0.4 0.2 0.8 0.1 0.4 0.2 0.8 0.2 0.4 0.2 0.8 0.1 0.4 0.2 0.8v2q0 0 0 0.1 0 0 0 0 0 0-0.1 0.1 0 0 0 0-0.1 1-0.4 1.9-0.2 1-0.6 1.9-0.3 1-0.8 1.8-0.5 0.9-1 1.7-0.4 0.6-0.8 1-0.4 0.5-0.9 0.9-0.4 0.4-1 0.8-0.5 0.3-1.1 0.5-0.1 0.1-0.2 0.1-0.1 0.1-0.2 0.2-0.1 0.1-0.1 0.3-0.1 0.1 0 0.2 0 10 0 20c0 1.1 0 2.2-0.1 3.3q0 1.9-0.7 3.8-0.6 1.8-1.8 3.4-1.1 1.6-2.7 2.7-1.6 1.2-3.4 1.9-0.4 0.1-0.9 0.2-0.4 0.1-0.8 0.2-0.4 0.2-0.9 0.3-0.4 0-0.8 0.1h-2.4q-0.3 0-0.5-0.1-1.9-0.2-3.6-1-1.8-0.7-3.2-1.9-1.5-1.3-2.5-2.8-1-1.6-1.6-3.4-0.1-0.4-0.2-0.8-0.1-0.4-0.2-0.7-0.1-0.4-0.2-0.8-0.1-0.4-0.1-0.8-0.5 0-0.9 0-2.1 0.1-4.2 0.2-2 0-4.1 0-2.1-0.1-4.1-0.2-2.1-0.2-4.2-0.4-0.6-0.1-1.3-0.2-0.7-0.1-1.3-0.3-0.7-0.1-1.3-0.3-0.6-0.2-1.2-0.5-0.4-0.1-0.7-0.4-0.3-0.2-0.5-0.5-0.2-0.4-0.3-0.7-0.1-0.4-0.1-0.8 0.1-16.3 0-32.5 0-0.4 0.1-0.7 0.1-0.4 0.2-0.7 0.2-0.3 0.5-0.5 0.3-0.3 0.6-0.4 0.2-0.1 0.3-0.2 0.2 0 0.3-0.1 0.2 0 0.3-0.1 0.2-0.1 0.3-0.1 0.9-0.3 1.8-0.5 0.9-0.2 1.8-0.3 0.9-0.2 1.8-0.3 0.9-0.1 1.8-0.1 2.3-0.2 4.5-0.3 2.3-0.1 4.6 0 2.2 0 4.5 0.2 2.2 0.2 4.4 0.5 0.6 0.1 1.2 0.3 0.5 0.1 1.1 0.2 0.6 0.2 1.1 0.3 0.6 0.2 1.1 0.4 0.4 0.1 0.7 0.4 0.3 0.2 0.5 0.5 0.3 0.3 0.4 0.7 0 0.4 0 0.8c-0.1 2 0 3.9 0 5.9q-0.1 0.1 0 0.2 0 0.1 0 0.2 0.1 0.1 0.2 0.2 0.1 0.1 0.2 0.1c4.4 2.3 6.8 5.9 6.8 10.9 0 4.9-2.4 8.5-6.8 10.8q-0.1 0.1-0.2 0.1-0.1 0.1-0.2 0.2 0 0.1 0 0.2-0.1 0.1 0 0.2c0 1.3 0 2.6 0 3.9q0 0.3-0.1 0.5 0 0.2-0.1 0.4-0.1 0.2-0.3 0.4-0.1 0.1-0.3 0.2-0.4 0.2-0.8 0.4-0.3 0.1-0.7 0.3-0.3 0.1-0.7 0.3-0.4 0.1-0.8 0.2c-1.1 0.3-2.2 0.5-3.4 0.7 0 0.5 0.1 1 0.2 1.5 0.3 1.5 0.9 3 1.8 4.2 0.9 1.3 2.1 2.3 3.5 3.1 1.3 0.8 2.8 1.2 4.4 1.4 1.5 0.1 3.1-0.1 4.6-0.7q1.6-0.5 2.9-1.6 1.4-1 2.3-2.4 1-1.4 1.5-3 0.5-1.7 0.4-3.4c0.1-7.5 0.1-15 0.1-22.5q0-0.1-0.1-0.2 0-0.1 0-0.2-0.1-0.1-0.2-0.1-0.1-0.1-0.2-0.1-0.2-0.1-0.4-0.2-0.1-0.1-0.3-0.2-0.2-0.1-0.4-0.2-0.2-0.1-0.3-0.2-0.6-0.4-1.2-1-0.5-0.5-1-1.1-0.5-0.6-0.9-1.2-0.3-0.7-0.6-1.4c-1.3-2.8-2.2-5.7-1.4-8.8 0.8-3.4 2.7-5.8 6.2-6.9q0.5-0.1 1-0.3zm-19.5 17c-1.3 0-2.5 0.2-3.7 0.7-1.2 0.5-2.2 1.2-3.1 2.1-0.9 0.8-1.6 1.9-2.1 3.1-0.5 1.1-0.8 2.4-0.8 3.6 0 1.3 0.2 2.6 0.7 3.7 0.4 1.2 1.1 2.3 2 3.2 0.9 0.9 1.9 1.6 3.1 2.1 1.2 0.5 2.4 0.8 3.7 0.8 1.3 0.1 2.5-0.2 3.7-0.7 1.2-0.4 2.3-1.1 3.2-2 0.9-0.9 1.6-2 2.1-3.1 0.5-1.2 0.8-2.5 0.8-3.7 0-1.3-0.2-2.6-0.7-3.7-0.5-1.2-1.2-2.3-2.1-3.2-0.9-0.9-1.9-1.6-3.1-2.1-1.2-0.5-2.4-0.8-3.7-0.8zm-25.1-8.5q3.2 0.6 6.5 0.9 3.2 0.3 6.5 0.3 3.2 0 6.5-0.3 3.2-0.3 6.4-0.9-3.2-0.6-6.4-0.9-3.3-0.3-6.5-0.3-3.3 0-6.5 0.3-3.3 0.3-6.5 0.9z"/><path class="b" d="m48 40.8q0.1 0.5 0 1 0 0.2 0 0.5 0.1 0.2 0.1 0.4 0.1 0.2 0.2 0.4 0.2 0.2 0.3 0.4 0.4 0.3 0.5 0.8 0.2 0.4 0.1 0.9 0 0.5-0.2 0.9-0.2 0.4-0.6 0.7-0.4 0.3-0.8 0.5-0.5 0.1-0.9 0.1-0.5-0.1-0.9-0.3-0.4-0.2-0.8-0.5-0.3-0.4-0.4-0.8-0.2-0.5-0.2-0.9 0.1-0.5 0.3-0.9 0.2-0.5 0.5-0.8 0.1 0 0.2-0.1 0.1-0.1 0.1-0.3 0.1-0.1 0.1-0.2 0-0.1 0-0.2 0-1.5 0-3 0-0.1 0-0.2 0-0.1 0-0.2 0.1-0.1 0.1-0.2 0-0.1 0-0.2 0-0.2 0.1-0.3 0.1-0.2 0.3-0.3 0.2-0.1 0.3-0.2 0.2-0.1 0.4-0.1 0.2 0 0.4 0.1 0.2 0 0.4 0.2 0.1 0.1 0.2 0.3 0.1 0.1 0.2 0.3c0.1 0.8 0.1 1.5 0.1 2.2z"/></svg>