<svg xmlns="http://www.w3.org/2000/svg" width="93.321" height="93.322" viewBox="0 0 93.321 93.322">
  <g id="bp" transform="translate(-4463.143 -1387.143)">
    <rect id="Rectangle_51" data-name="Rectangle 51" width="93.321" height="93.321" rx="7" transform="translate(4463.143 1387.143)" fill="#53eaff" opacity="0.1"/>
    <g id="Group_48" data-name="Group 48" transform="translate(4463.143 1387.143)">
      <rect id="Rectangle_55" data-name="Rectangle 55" width="93.321" height="93.321" transform="translate(0 0)" fill="none"/>
      <g id="Group_45" data-name="Group 45" transform="translate(17.826 18.348)">
        <path id="Path_375" data-name="Path 375" d="M-425.914,397.989h1.812a1.232,1.232,0,0,0,.2.087,8.24,8.24,0,0,1,6.535,5.383,23.556,23.556,0,0,1,.848,3.15v2.041a.806.806,0,0,0-.091.2,17.077,17.077,0,0,1-2.849,7.315,8.171,8.171,0,0,1-3.762,3.226.7.7,0,0,0-.558.79q.027,10,.011,20c0,1.077.054,2.157-.033,3.23a13.018,13.018,0,0,1-8.648,11.784,24.512,24.512,0,0,1-3.432.866h-2.378c-.163-.04-.323-.087-.486-.116a13.082,13.082,0,0,1-10.9-9.1,27.506,27.506,0,0,1-.729-3.121c-.275,0-.576-.018-.873,0a84.771,84.771,0,0,1-16.55-.384,17.168,17.168,0,0,1-5.187-1.312,2.331,2.331,0,0,1-1.526-2.367q.06-16.273,0-32.553a2.281,2.281,0,0,1,1.385-2.287,9.635,9.635,0,0,1,1.2-.489,29.9,29.9,0,0,1,7.231-1.218,80.415,80.415,0,0,1,18.007.45,27.335,27.335,0,0,1,4.458,1.193,2.174,2.174,0,0,1,1.584,2.381c-.083,1.965-.015,3.933-.029,5.9a.664.664,0,0,0,.406.7c4.386,2.287,6.8,5.912,6.8,10.863s-2.41,8.576-6.8,10.863a.658.658,0,0,0-.413.7c.018,1.3,0,2.606.011,3.911a1.528,1.528,0,0,1-.812,1.511,19.106,19.106,0,0,1-2.914,1.182c-1.113.319-2.276.468-3.465.7.069.5.116.982.21,1.461a10.818,10.818,0,0,0,14.278,8.061,10.864,10.864,0,0,0,7.18-10.4c.036-7.5.007-15.006.018-22.513a.6.6,0,0,0-.446-.656,7.412,7.412,0,0,1-1.446-.754,11.422,11.422,0,0,1-3.708-4.7c-1.3-2.784-2.128-5.676-1.377-8.779.823-3.407,2.729-5.886,6.2-6.937C-426.6,398.148-426.259,398.076-425.914,397.989Zm-19.526,16.934a9.679,9.679,0,0,0-9.707,9.547,9.673,9.673,0,0,0,9.5,9.812,9.671,9.671,0,0,0,9.794-9.573A9.68,9.68,0,0,0-445.44,414.923Zm-25.057-8.46a71.53,71.53,0,0,0,25.862-.007A71.212,71.212,0,0,0-470.5,406.463Z" transform="translate(474.51 -397.989)" fill="#54f9ff"/>
        <path id="Path_376" data-name="Path 376" d="M-463.55,406.439c0,.319.018.642,0,.961a1.968,1.968,0,0,0,.594,1.693,2.247,2.247,0,0,1-.25,3.313,2.38,2.38,0,0,1-3.353-.232,2.32,2.32,0,0,1,.207-3.335.976.976,0,0,0,.381-.866c-.018-1-.011-2,0-3a3.764,3.764,0,0,1,.073-.729,1.124,1.124,0,0,1,1.138-.906,1.078,1.078,0,0,1,1.135.9c.091.725.083,1.464.12,2.2Z" transform="translate(493.772 -383.955)" fill="#53f8ff"/>
      </g>
    </g>
  </g>
</svg>
