<svg xmlns="http://www.w3.org/2000/svg" width="24" height="24" viewBox="0 0 24 24">
  <g id="Group_18" data-name="Group 18" transform="translate(279 -1922)">
    <rect id="Rectangle_31" data-name="Rectangle 31" width="24" height="24" transform="translate(-279 1922)" fill="none"/>
    <g id="Group_12" data-name="Group 12" transform="translate(-280.151 1920.849)">
      <path id="Path_358" data-name="Path 358" d="M3.316,5.5A2.937,2.937,0,0,1,5.5,3.316h0a6.265,6.265,0,0,1,2.862,0h0A2.937,2.937,0,0,1,10.555,5.5h0a6.265,6.265,0,0,1,0,2.862h0a2.937,2.937,0,0,1-2.189,2.189h0a6.265,6.265,0,0,1-2.862,0h0A2.937,2.937,0,0,1,3.316,8.366h0a6.266,6.266,0,0,1,0-2.862Z" transform="translate(0 0)" fill="none" stroke="#ffb23e" stroke-width="1.5"/>
      <path id="Path_359" data-name="Path 359" d="M3.316,16.5A2.937,2.937,0,0,1,5.5,14.316h0a6.267,6.267,0,0,1,2.862,0h0A2.937,2.937,0,0,1,10.555,16.5h0a6.265,6.265,0,0,1,0,2.862h0a2.937,2.937,0,0,1-2.189,2.189h0a6.267,6.267,0,0,1-2.862,0h0a2.937,2.937,0,0,1-2.189-2.189h0a6.266,6.266,0,0,1,0-2.862Z" transform="translate(0 1.43)" fill="none" stroke="#ffb23e" stroke-width="1.5"/>
      <path id="Path_360" data-name="Path 360" d="M14.316,5.5A2.937,2.937,0,0,1,16.5,3.316h0a6.265,6.265,0,0,1,2.862,0h0A2.937,2.937,0,0,1,21.555,5.5h0a6.267,6.267,0,0,1,0,2.862h0a2.937,2.937,0,0,1-2.189,2.189h0a6.265,6.265,0,0,1-2.862,0h0a2.937,2.937,0,0,1-2.189-2.189h0a6.267,6.267,0,0,1,0-2.862Z" transform="translate(1.43 0)" fill="none" stroke="#ffb23e" stroke-width="1.5"/>
      <path id="Path_361" data-name="Path 361" d="M14.316,16.5A2.937,2.937,0,0,1,16.5,14.316h0a6.267,6.267,0,0,1,2.862,0h0A2.937,2.937,0,0,1,21.555,16.5h0a6.267,6.267,0,0,1,0,2.862h0a2.937,2.937,0,0,1-2.189,2.189h0a6.267,6.267,0,0,1-2.862,0h0a2.937,2.937,0,0,1-2.189-2.189h0a6.267,6.267,0,0,1,0-2.862Z" transform="translate(1.43 1.43)" fill="none" stroke="#ffb23e" stroke-width="1.5"/>
    </g>
  </g>
</svg>
