<svg xmlns="http://www.w3.org/2000/svg" width="40" height="40" viewBox="0 0 40 40">
  <g id="Group_72" data-name="Group 72" transform="translate(-3875 -167)">
    <circle id="Ellipse_11" data-name="Ellipse 11" cx="20" cy="20" r="20" transform="translate(3875 167)" fill="#2b2934"/>
    <g id="Group_69" data-name="Group 69" transform="translate(3879.138 171.138)">
      <rect id="Rectangle_44" data-name="Rectangle 44" width="33.103" height="33.103" transform="translate(0 0)" fill="none"/>
      <g id="Group_67" data-name="Group 67" transform="translate(5.708 4.566)">
        <path id="Path_400" data-name="Path 400" d="M-462.151-291l6.62,3.614,13.018,7.1a1.913,1.913,0,0,1,.173.1.665.665,0,0,1,.218.867.661.661,0,0,1-.86.3c-.142-.063-.276-.145-.413-.219l-.417-.228v5.039h-1.35v-.258c0-1.761,0-3.522,0-5.284a.349.349,0,0,0-.218-.357c-1.189-.64-2.374-1.29-3.56-1.936-.07-.038-.141-.072-.234-.119v5.276h-1.344v-.254q0-2.776,0-5.551c0-.118.007-.217-.133-.293-1.255-.675-2.5-1.361-3.756-2.043-.031-.017-.064-.029-.124-.056v5.527h-1.339v-.256c0-1.932,0-3.864,0-5.8a.315.315,0,0,0-.194-.324c-1.215-.656-2.425-1.319-3.637-1.98-.05-.027-.1-.049-.178-.084v5.759h-1.346v-.254q0-3.021,0-6.041a.3.3,0,0,0-.18-.311c-.39-.2-.767-.423-1.155-.625a.7.7,0,0,1-.447-.659.65.65,0,0,1,.459-.622c.011,0,.018-.021.027-.032Z" transform="translate(463.891 291)" fill="#fd5d5d"/>
        <path id="Path_401" data-name="Path 401" d="M-476.32-67.178h4.563a.692.692,0,0,1,.788.794c0,.616,0,1.232,0,1.881h4.568a.688.688,0,0,1,.782.777c0,.623,0,1.246,0,1.9h4.574a.688.688,0,0,1,.777.782q0,1.672,0,3.343a.689.689,0,0,1-.781.779h-21.174a.692.692,0,0,1-.786-.8q0-5.672,0-11.345a.692.692,0,0,1,.791-.79h5.1a.692.692,0,0,1,.793.789C-476.32-68.448-476.32-67.831-476.32-67.178Z" transform="translate(483.009 79.752)" fill="#fd5d5d"/>
      </g>
    </g>
  </g>
</svg>
