<svg version="1.2" xmlns="http://www.w3.org/2000/svg" viewBox="0 0 17 17" width="17" height="17"><style></style><path  d="m1.4 0.3l4.8 2.6 9.4 5.2q0.1 0 0.1 0 0 0 0 0 0 0 0 0 0 0 0.1 0.1 0 0 0.1 0.1 0 0 0.1 0.1 0 0.1 0 0.2 0 0.1-0.1 0.2 0 0.1-0.1 0.1-0.1 0.1-0.1 0.1-0.1 0-0.2 0-0.1 0-0.2 0-0.2-0.1-0.3-0.2l-0.3-0.1v3.6h-1v-0.2q0-1.9 0-3.8 0 0 0-0.1 0 0 0-0.1 0 0-0.1 0 0 0 0-0.1-1.3-0.7-2.6-1.4-0.1 0-0.2 0v3.8h-1v-0.2q0-2 0-4c0-0.1 0-0.2-0.1-0.2q-1.3-0.8-2.7-1.5 0 0-0.1-0.1v4h-0.9v-0.1q0-2.1 0-4.2 0-0.1-0.1-0.1 0 0 0-0.1 0 0 0 0-0.1-0.1-0.1-0.1-1.3-0.7-2.6-1.4-0.1 0-0.2-0.1v4.2h-0.9v-0.2q0-2.2 0-4.4 0 0 0 0 0-0.1-0.1-0.1 0 0 0 0 0-0.1-0.1-0.1-0.4-0.2-0.8-0.4-0.1-0.1-0.1-0.1-0.1-0.1-0.1-0.1-0.1-0.1-0.1-0.2 0 0 0-0.1 0-0.1 0-0.2 0 0 0.1-0.1 0-0.1 0.1-0.1 0 0 0.1-0.1 0 0 0 0z"/><path  d="m5 9.4h3.3q0.1 0 0.2 0 0.1 0.1 0.2 0.2 0.1 0.1 0.1 0.2 0.1 0.1 0.1 0.2 0 0.7 0 1.4h3.3q0.1-0.1 0.2 0 0.1 0 0.2 0.1 0.1 0.1 0.1 0.2 0.1 0.1 0 0.2 0 0.7 0 1.4h3.4q0.1 0 0.2 0 0.1 0.1 0.2 0.1 0.1 0.1 0.1 0.2 0 0.2 0 0.3 0 1.2 0 2.4 0 0.1 0 0.2 0 0.1-0.1 0.2-0.1 0.1-0.2 0.1-0.1 0.1-0.2 0.1h-15.4q-0.1 0-0.2-0.1-0.1 0-0.2-0.1-0.1-0.1-0.1-0.2-0.1-0.1-0.1-0.2 0-4.1 0-8.2 0-0.2 0.1-0.3 0-0.1 0.1-0.2 0.1-0.1 0.2-0.1 0.1 0 0.2 0h3.7q0.1 0 0.2 0 0.2 0 0.2 0.1 0.1 0.1 0.2 0.2 0 0.1 0 0.3 0 0.6 0 1.3z"/></svg>