<svg version="1.2" xmlns="http://www.w3.org/2000/svg" viewBox="0 0 94 94" width="94" height="94"><style>.a{fill:#53f8ff}.b{fill:#fff}</style><path class="a" d="m0 20c0-11 9-20 20-20h54c11 0 20 9 20 20v54c0 11-9 20-20 20h-54c-11 0-20-9-20-20z"/><path fill-rule="evenodd" class="b" d="m23.4 73.3q-0.6-0.1-1.2-0.2-0.7-0.2-1.2-0.6-0.5-0.3-1-0.8-0.4-0.5-0.7-1.1l-1.9-4.4q-0.1-0.2-0.2-0.4-0.1-0.3-0.1-0.5-0.1-0.2-0.1-0.5 0-0.2 0-0.4v-39.9q0-0.9 0.3-1.7 0.4-0.8 1-1.5 0.7-0.6 1.5-1 0.8-0.3 1.7-0.3h51q0.9 0 1.7 0.3 0.8 0.4 1.5 1 0.6 0.7 1 1.5 0.3 0.8 0.3 1.7v39.9q0 0.2 0 0.4 0 0.3-0.1 0.5 0 0.2-0.1 0.5-0.1 0.2-0.2 0.4l-1.9 4.4q-0.3 0.6-0.7 1.1-0.5 0.5-1 0.8-0.5 0.4-1.2 0.6-0.6 0.1-1.3 0.2zm-2.7-3.3q0.2 0.4 0.5 0.7 0.3 0.3 0.6 0.6 0.4 0.2 0.8 0.3 0.4 0.1 0.9 0.2h47.1q0.4-0.1 0.8-0.2 0.4-0.1 0.8-0.3 0.3-0.3 0.6-0.6 0.3-0.3 0.5-0.7l1-2.4q-0.2 0.1-0.4 0.2-0.2 0.1-0.5 0.1-0.2 0.1-0.4 0.1-0.3 0-0.5 0h-51q-0.2 0-0.5 0-0.2 0-0.4-0.1-0.3 0-0.5-0.1-0.2-0.1-0.4-0.2zm-2.2-6.5q0 0.6 0.2 1.2 0.2 0.5 0.6 1 0.5 0.4 1 0.6 0.6 0.2 1.2 0.2h51q0.5 0 1.1-0.2 0.5-0.2 1-0.6 0.4-0.5 0.6-1 0.2-0.6 0.3-1.2v-0.7q-0.1-0.6-0.3-1.2-0.2-0.5-0.6-0.9-0.5-0.5-1-0.7-0.6-0.2-1.1-0.2h-3.8c0 1-0.4 1.9-1.1 2.6-0.7 0.7-1.7 1.1-2.6 1.1-1 0-2-0.4-2.7-1.1-0.7-0.7-1.1-1.6-1.1-2.6h-4.5c0 1-0.4 1.9-1.1 2.6-0.7 0.7-1.7 1.1-2.6 1.1-1 0-2-0.4-2.7-1.1-0.7-0.7-1.1-1.6-1.1-2.6h-4.5c0 1-0.4 1.9-1.1 2.6-0.7 0.7-1.7 1.1-2.6 1.1-1 0-2-0.4-2.7-1.1-0.7-0.7-1.1-1.6-1.1-2.6h-4.5c0 1-0.4 1.9-1.1 2.6-0.7 0.7-1.7 1.1-2.6 1.1-1 0-2-0.4-2.7-1.1-0.7-0.7-1.1-1.6-1.1-2.6h-3.7q-0.6 0-1.2 0.2-0.5 0.2-1 0.7-0.4 0.4-0.6 0.9-0.2 0.6-0.2 1.2zm54-5.3q0.4 0 0.8 0.1 0.4 0.1 0.8 0.2 0.3 0.2 0.7 0.4 0.3 0.2 0.7 0.5v-34.9q-0.1-0.6-0.3-1.2-0.2-0.5-0.6-0.9-0.5-0.5-1-0.7-0.6-0.2-1.1-0.2h-51q-0.6 0-1.2 0.2-0.5 0.2-1 0.7-0.4 0.4-0.6 0.9-0.2 0.6-0.2 1.2v34.9q0.3-0.3 0.6-0.5 0.4-0.2 0.7-0.4 0.4-0.1 0.8-0.2 0.4-0.1 0.9-0.1h4c0.3-0.6 0.8-1.2 1.4-1.6 0.6-0.4 1.3-0.6 2.1-0.6 0.7 0 1.4 0.2 2 0.6 0.6 0.4 1.1 1 1.4 1.6h5.1c0.3-0.6 0.8-1.2 1.4-1.6 0.6-0.4 1.3-0.6 2.1-0.6 0.7 0 1.4 0.2 2 0.6 0.6 0.4 1.1 1 1.4 1.6h5.1c0.3-0.6 0.8-1.2 1.4-1.6 0.6-0.4 1.3-0.6 2.1-0.6 0.7 0 1.4 0.2 2 0.6 0.6 0.4 1.1 1 1.4 1.6h5.1c0.3-0.6 0.8-1.2 1.4-1.6 0.6-0.4 1.3-0.6 2.1-0.6 0.7 0 1.4 0.2 2 0.6 0.6 0.4 1.1 1 1.4 1.6zm-46.5-4.5q-0.8 0-1.4-0.2-0.7-0.3-1.3-0.9-0.5-0.5-0.8-1.2-0.3-0.7-0.3-1.4v-21q0-0.8 0.3-1.4 0.3-0.7 0.8-1.3 0.6-0.5 1.3-0.8 0.6-0.3 1.4-0.3h42q0.7 0 1.4 0.3 0.7 0.3 1.2 0.8 0.6 0.6 0.9 1.3 0.2 0.6 0.2 1.4v21q0 0.7-0.2 1.4-0.3 0.7-0.9 1.2-0.5 0.6-1.2 0.9-0.7 0.2-1.4 0.2zm-2.3-24.7v21q0 0.4 0.2 0.9 0.2 0.4 0.5 0.7 0.3 0.3 0.7 0.5 0.4 0.1 0.9 0.1h42q0.4 0 0.9-0.1 0.4-0.2 0.7-0.5 0.3-0.3 0.5-0.7 0.1-0.5 0.1-0.9v-21q0-0.5-0.1-0.9-0.2-0.4-0.5-0.7-0.3-0.3-0.7-0.5-0.5-0.2-0.9-0.2h-42q-0.5 0-0.9 0.2-0.4 0.2-0.7 0.5-0.3 0.3-0.5 0.7-0.2 0.4-0.2 0.9zm9.1 20.5l-2.1-7h-2.5q-0.3 0-0.5-0.2-0.2-0.2-0.2-0.6 0-0.3 0.2-0.5 0.2-0.2 0.5-0.2h3q0.2 0 0.3 0 0.1 0.1 0.2 0.1 0.1 0.1 0.2 0.2 0 0.1 0.1 0.2l1.5 5.1 1.5-5 2.3-11.3q0-0.2 0.2-0.4 0.2-0.2 0.5-0.2 0.3 0 0.5 0.2 0.2 0.2 0.2 0.4l1.7 8.5 1.4-4q0.1-0.3 0.3-0.4 0.2-0.2 0.4-0.2 0.2 0 0.4 0.2 0.2 0.1 0.3 0.4l2.1 6.2h3.4l1.7-5.8q0.1-0.3 0.3-0.4 0.2-0.2 0.5-0.2 0.2 0 0.4 0.2 0.2 0.2 0.3 0.5l0.9 6.9 0.2-0.7q0.1-0.1 0.1-0.2 0.1-0.1 0.2-0.2 0.1 0 0.2-0.1 0.1 0 0.2 0h1.3l1.4-8.8q0-0.2 0.2-0.4 0.2-0.2 0.5-0.2 0.3 0 0.5 0.2 0.2 0.2 0.3 0.4l1.7 8.8h1.6q0.2 0 0.3 0 0.1 0.1 0.2 0.1 0.1 0.1 0.1 0.2 0.1 0.1 0.1 0.2l0.4 0.9 0.1-1.1q0-0.1 0-0.3 0.1-0.1 0.2-0.2 0.1-0.1 0.2-0.1 0.2-0.1 0.3-0.1h3.8q0.3 0 0.5 0.2 0.2 0.3 0.2 0.6 0 0.3-0.2 0.5-0.2 0.2-0.5 0.2h-3.1l-0.3 3.8q0 0.3-0.2 0.5-0.2 0.2-0.5 0.2-0.2 0-0.4-0.1-0.3-0.1-0.4-0.4l-1.3-3.6h-1.7q-0.1 0-0.3-0.1-0.1 0-0.2-0.1-0.1-0.1-0.2-0.2 0-0.1 0-0.2l-1.1-5.3-0.8 5.3q-0.1 0.1-0.1 0.2-0.1 0.1-0.2 0.2-0.1 0.1-0.2 0.1-0.2 0.1-0.3 0.1h-1.3l-1 3.6q0 0.2-0.2 0.4-0.3 0.1-0.5 0.1-0.3 0-0.5-0.2-0.2-0.2-0.2-0.4l-1-7.1-0.9 3.1q-0.1 0.1-0.1 0.2-0.1 0.1-0.2 0.1-0.1 0.1-0.2 0.2-0.1 0-0.3 0h-4.5q-0.1 0-0.2 0-0.1-0.1-0.2-0.1-0.1-0.1-0.2-0.2 0-0.1-0.1-0.2l-1.5-4.6-1.5 4.6q-0.1 0.2-0.3 0.4-0.3 0.1-0.5 0.1-0.3 0-0.5-0.2-0.1-0.2-0.2-0.4l-1.5-7.6-1.5 7.6q0 0 0 0.1l-2.3 7.5q-0.1 0.2-0.3 0.3-0.2 0.2-0.4 0.2-0.3 0-0.5-0.2-0.2-0.1-0.2-0.3zm33.9 8.7q-0.4-0.3-0.8-0.5-0.4-0.2-0.9-0.2-0.5 0-0.9 0.2-0.5 0.2-0.8 0.5 0.3-0.3 0.8-0.5 0.4-0.2 0.9-0.2 0.5 0 0.9 0.2 0.4 0.2 0.8 0.5zm-12 0q-0.4-0.3-0.8-0.5-0.4-0.2-0.9-0.2-0.5 0-0.9 0.2-0.5 0.2-0.8 0.5 0.3-0.3 0.8-0.5 0.4-0.2 0.9-0.2 0.5 0 0.9 0.2 0.4 0.2 0.8 0.5zm-12 0q-0.4-0.3-0.8-0.5-0.4-0.2-0.9-0.2-0.5 0-0.9 0.2-0.5 0.2-0.8 0.5 0.3-0.3 0.8-0.5 0.4-0.2 0.9-0.2 0.5 0 0.9 0.2 0.4 0.2 0.8 0.5zm-12 0q-0.4-0.3-0.8-0.5-0.4-0.2-0.9-0.2-0.5 0-0.9 0.2-0.5 0.2-0.8 0.5 0.3-0.3 0.8-0.5 0.4-0.2 0.9-0.2 0.5 0 0.9 0.2 0.4 0.2 0.8 0.5z"/></svg>