<svg version="1.2" xmlns="http://www.w3.org/2000/svg" viewBox="0 0 94 94" width="94" height="94"><style>.a{opacity:.1;fill:#f58220}.b{fill:#f58220}</style><path class="a" d="m0 20c0-11 9-20 20-20h54c11 0 20 9 20 20v54c0 11-9 20-20 20h-54c-11 0-20-9-20-20z"/><path fill-rule="evenodd" class="b" d="m52.3 73.2h-19.6c-1.1 0-2.3-0.2-3.4-0.7-1.1-0.4-2.1-1.1-2.9-1.9-0.9-0.9-1.5-1.9-2-3-0.5-1.1-0.7-2.2-0.7-3.4v-20.1c0.3 0.3 1.9 1.9 2.2 2.2v17.9q0 1.3 0.5 2.6 0.5 1.3 1.5 2.2 0.9 1 2.2 1.5 1.3 0.6 2.6 0.6h19.6c0.7-2.2 3.4-3.8 6.8-3.8 3.3 0 6.1 1.6 6.8 3.8h1.2c0.3 0 0.6 0.1 0.8 0.3 0.2 0.2 0.3 0.5 0.3 0.8 0 0.2-0.1 0.5-0.3 0.7-0.2 0.2-0.5 0.3-0.8 0.3h-1.2c-0.7 2.2-3.5 3.8-6.8 3.8-3.4 0-6.1-1.6-6.8-3.8zm2-1c0 1.2 1.9 2.6 4.8 2.6 2.8 0 4.8-1.4 4.8-2.6 0-1.3-2-2.8-4.8-2.8-2.9 0-4.8 1.5-4.8 2.8zm-18.8-4.3c0-0.5 0.3-0.9 0.7-1 0.4-0.2 0.8-0.1 1.1 0.2 0.3 0.3 0.4 0.8 0.3 1.2-0.2 0.4-0.6 0.6-1 0.6q-0.2 0-0.4 0-0.2-0.1-0.4-0.3-0.1-0.1-0.2-0.3-0.1-0.2-0.1-0.4zm-3.1 0c0-0.5 0.2-0.9 0.6-1 0.4-0.2 0.9-0.1 1.2 0.2 0.3 0.3 0.4 0.8 0.2 1.2-0.1 0.4-0.5 0.6-1 0.6q-0.2 0-0.4-0.1-0.2 0-0.3-0.2-0.2-0.1-0.2-0.3-0.1-0.2-0.1-0.4zm-3.2-0.9c0-0.4 0.3-0.8 0.7-1 0.4-0.2 0.9-0.1 1.2 0.2 0.3 0.3 0.4 0.8 0.2 1.2-0.2 0.4-0.6 0.7-1 0.7q-0.2 0-0.4-0.1-0.2-0.1-0.3-0.2-0.2-0.2-0.3-0.4-0.1-0.2-0.1-0.4zm-1.2-2.8c0-0.5 0.3-0.9 0.7-1 0.4-0.2 0.8-0.1 1.1 0.2 0.3 0.3 0.4 0.8 0.3 1.2-0.2 0.4-0.6 0.6-1 0.6q-0.2 0-0.4-0.1-0.2 0-0.4-0.2-0.1-0.1-0.2-0.3-0.1-0.2-0.1-0.4zm18.7-1.1q-0.2 0-0.5-0.1-0.3 0-0.6-0.2-0.3-0.1-0.5-0.2-0.3-0.2-0.5-0.4l-18.4-18.7c-1.4-1.4-2.5-3.1-3.3-4.9-0.8-1.9-1.2-3.8-1.3-5.8 0-2 0.3-4 1-5.9 0.7-1.9 1.7-3.6 3.1-5.1 1.3-1.4 2.9-2.6 4.7-3.4 1.7-0.8 3.7-1.3 5.6-1.4q3-0.1 5.7 0.9c1.9 0.6 3.6 1.6 5.1 2.9 2-1.8 4.5-3.1 7.2-3.6 2.8-0.5 5.5-0.2 8.1 0.8 2.6 1 4.9 2.6 6.6 4.8 1.7 2.2 2.7 4.7 3.1 7.5q-0.3-0.2-0.6-0.4-0.3-0.2-0.6-0.4-0.3-0.2-0.6-0.3-0.4-0.2-0.7-0.3c-0.6-2.3-1.7-4.3-3.3-5.9-1.6-1.6-3.7-2.8-5.9-3.4-2.2-0.6-4.5-0.6-6.7 0-2.3 0.6-4.3 1.8-5.9 3.4q-0.1 0.2-0.3 0.2-0.2 0.1-0.4 0.1-0.3 0-0.5-0.1-0.2 0-0.3-0.2-0.9-0.9-2-1.6-1-0.8-2.2-1.3-1.2-0.5-2.5-0.7-1.3-0.3-2.6-0.3h-0.1q-1.4 0.1-2.6 0.3-1.3 0.3-2.5 0.9-1.2 0.5-2.3 1.3-1.1 0.7-2 1.7c-1.1 1.3-2 2.8-2.6 4.4-0.6 1.6-0.9 3.3-0.9 5 0.1 1.8 0.5 3.5 1.1 5 0.7 1.6 1.7 3.1 2.9 4.3l18.5 18.7q0.1 0.1 0.2 0.2 0.2 0 0.4 0 0.1 0 0.3 0 0.1-0.1 0.2-0.2l8.7-8.8q0.2 0.2 0.5 0.3 0.2 0.2 0.4 0.3 0.2 0.2 0.5 0.3 0.2 0.1 0.5 0.3l-9 9.1q-0.2 0.2-0.5 0.4-0.2 0.1-0.5 0.2-0.3 0.2-0.6 0.2-0.2 0.1-0.6 0.1zm5.9-22c0-4.5 2.8-8.6 7-10.4 4.2-1.7 9-0.8 12.2 2.5 3.3 3.2 4.2 8 2.5 12.2-1.8 4.2-5.9 7-10.4 7-1.5 0-2.9-0.3-4.3-0.9-1.4-0.6-2.6-1.4-3.7-2.4-1-1.1-1.8-2.3-2.4-3.7-0.6-1.4-0.9-2.8-0.9-4.3zm2.2 0c0 3.7 2.2 7 5.6 8.4 3.4 1.4 7.3 0.7 9.9-2 2.6-2.6 3.4-6.5 2-9.9-1.4-3.4-4.7-5.6-8.4-5.6-1.2 0-2.4 0.2-3.5 0.7-1.1 0.5-2.1 1.1-2.9 2-0.9 0.8-1.6 1.8-2 2.9-0.5 1.1-0.7 2.3-0.7 3.5zm6.8 2.3c-0.5-0.5-0.9-1.2-0.9-2-0.1-0.8 0.1-1.5 0.5-2.1 0.5-0.7 1.1-1.1 1.9-1.3 0.7-0.2 1.5-0.1 2.2 0.2l2.1-2.1c0.2-0.2 0.5-0.3 0.8-0.3 0.3 0 0.5 0.1 0.7 0.3 0.2 0.2 0.3 0.4 0.3 0.7 0.1 0.3-0.1 0.6-0.3 0.8l-2.1 2.1c0.3 0.7 0.4 1.5 0.2 2.2-0.2 0.8-0.6 1.4-1.3 1.9-0.6 0.4-1.3 0.6-2.1 0.5-0.8 0-1.5-0.4-2-0.9zm1.2-2.3c0 0.4 0.3 0.8 0.7 1 0.4 0.2 0.8 0.1 1.2-0.2 0.3-0.3 0.3-0.8 0.2-1.2-0.2-0.4-0.6-0.7-1-0.7q-0.2 0-0.4 0.1-0.2 0.1-0.4 0.3-0.1 0.1-0.2 0.3-0.1 0.2-0.1 0.4zm-30.2-2.4q-0.7-0.7-1.2-1.5-0.6-0.7-1-1.6-0.4-0.9-0.6-1.8-0.2-0.9-0.2-1.9 0-0.9 0.2-1.8 0.1-0.9 0.5-1.7 0.3-0.9 0.8-1.6 0.5-0.8 1.2-1.5c0.2-0.2 0.5-0.3 0.8-0.3 0.2 0 0.5 0.2 0.7 0.4 0.2 0.2 0.3 0.4 0.3 0.7 0 0.3-0.1 0.6-0.3 0.8q-0.5 0.5-0.9 1-0.4 0.6-0.6 1.3-0.3 0.6-0.4 1.3-0.2 0.7-0.1 1.4 0 0.7 0.1 1.4 0.2 0.8 0.5 1.4 0.3 0.7 0.7 1.3 0.5 0.6 1 1.1c0.2 0.2 0.3 0.5 0.3 0.8 0.1 0.3-0.1 0.5-0.3 0.7-0.1 0.2-0.4 0.4-0.7 0.4q-0.4 0-0.8-0.3zm45.9-11.3c-0.3 0-0.6-0.2-0.7-0.4-0.2-0.2-0.3-0.5-0.2-0.8 0-0.3 0.1-0.5 0.4-0.7 0.2-0.2 0.5-0.2 0.8-0.2l1.9 0.3q0.4 0 0.6 0.4 0.3 0.3 0.3 0.7-0.1 0.4-0.4 0.7-0.3 0.3-0.7 0.3-0.1 0-0.1 0zm-65.5-0.7q0-0.2 0-0.4 0.1-0.2 0.2-0.3 0.2-0.2 0.3-0.3 0.2-0.1 0.4-0.1l1.9-0.3c0.3 0 0.6 0.1 0.8 0.2 0.2 0.2 0.4 0.4 0.4 0.7 0.1 0.3 0 0.6-0.2 0.8-0.2 0.2-0.4 0.4-0.7 0.4l-1.9 0.3q-0.2 0-0.4 0-0.2-0.1-0.4-0.2-0.2-0.2-0.3-0.4-0.1-0.2-0.1-0.4zm3.3-3.6l-2-1.7c-0.3-0.2-0.4-0.4-0.4-0.7 0-0.3 0-0.6 0.2-0.8 0.2-0.2 0.5-0.4 0.8-0.4 0.2 0 0.5 0.1 0.7 0.3l2.1 1.7c0.2 0.2 0.3 0.4 0.3 0.7 0.1 0.3 0 0.6-0.2 0.8-0.2 0.2-0.5 0.3-0.7 0.4q-0.5 0-0.8-0.3zm60.5-0.1q-0.1-0.2-0.2-0.4-0.1-0.2-0.1-0.4 0.1-0.2 0.2-0.4 0.1-0.2 0.2-0.3l2-1.7c0.3-0.2 0.5-0.3 0.8-0.3 0.3 0 0.6 0.2 0.8 0.4 0.2 0.2 0.3 0.5 0.2 0.8 0 0.3-0.2 0.5-0.4 0.7l-2 1.7q-0.2 0.2-0.4 0.2-0.2 0.1-0.4 0.1-0.2 0-0.4-0.1-0.2-0.1-0.3-0.3zm-2.8-1.9q-0.2 0-0.4-0.1-0.2-0.1-0.3-0.2-0.2-0.2-0.2-0.4-0.1-0.2-0.1-0.4l0.1-2c0.1-0.3 0.2-0.5 0.4-0.7 0.2-0.2 0.5-0.3 0.8-0.3 0.3 0 0.5 0.2 0.7 0.4 0.2 0.2 0.3 0.5 0.3 0.7l-0.2 2q0 0.2-0.1 0.4 0 0.2-0.2 0.3-0.1 0.2-0.3 0.2-0.2 0.1-0.4 0.1-0.1 0-0.1 0zm-54.6-1l-0.1-2c0-0.2 0.1-0.5 0.3-0.7 0.2-0.2 0.4-0.4 0.7-0.4 0.3 0 0.6 0.1 0.8 0.3 0.2 0.2 0.3 0.4 0.3 0.7l0.2 2q0 0.2-0.1 0.4-0.1 0.2-0.2 0.4-0.1 0.1-0.3 0.2-0.2 0.1-0.4 0.1h-0.1q-0.2 0-0.4-0.1-0.2 0-0.3-0.2-0.2-0.1-0.3-0.3-0.1-0.2-0.1-0.4z"/></svg>