<svg xmlns="http://www.w3.org/2000/svg" width="94" height="94" viewBox="0 0 94 94">
  <g id="Group_507" data-name="Group 507" transform="translate(-4356 -2443)">
    <rect id="Rectangle_164" data-name="Rectangle 164" width="93" height="94" rx="7" transform="translate(4357 2443)" fill="#00ffac" opacity="0.1"/>
    <g id="Group_489" data-name="Group 489" transform="translate(-517 -135)">
      <rect id="Rectangle_165" data-name="Rectangle 165" width="94" height="94" transform="translate(4873 2578)" fill="none"/>
      <g id="Group_488" data-name="Group 488" transform="translate(5516.25 2220.5)">
        <path id="Path_514" data-name="Path 514" d="M-626.25,405.424c.158-.716.289-1.44.48-2.147a13.249,13.249,0,0,1,3.449-5.956,1.133,1.133,0,0,1,1.436-.277,1.064,1.064,0,0,1,.594,1.274,2.085,2.085,0,0,1-.517.821,10.835,10.835,0,0,0-3.058,7.977,24.5,24.5,0,0,0,.725,3.824c.072.36.282.477.664.474q3.9-.028,7.8,0a.73.73,0,0,0,.758-.47c1.24-2.386,2.509-4.758,3.753-7.143a1.346,1.346,0,0,1,1.3-.914c.593.032.953.441,1.145,1.225q1.527,6.209,3.057,12.417c.026.1.073.2.171.47.4-1.805.771-3.443,1.138-5.082.174-.779.351-1.557.519-2.337a1.221,1.221,0,0,1,1.025-1.122c.6-.09.991.141,1.346.8.562,1.048,1.117,2.1,1.678,3.148.059.111.138.213.274.422.4-1.571.773-3.033,1.146-4.494.414-1.622.825-3.244,1.247-4.864.2-.767.552-1.085,1.166-1.1s.991.285,1.225,1.034q1.166,3.735,2.324,7.472c.051.165.109.329.174.525,2.119,0,4.229.006,6.339-.013a.56.56,0,0,0,.4-.3,11.039,11.039,0,0,0-.409-9.279,1.04,1.04,0,0,0-.508-.428,14.255,14.255,0,0,1-6.228-4.986,1.183,1.183,0,0,0-.639-.441,11.137,11.137,0,0,0-10.251,2.576,3.5,3.5,0,0,1-.829.635,1.212,1.212,0,0,1-1.384-.354,11.11,11.11,0,0,0-6.134-3.055c-.327-.052-.663-.058-.988-.119a1.16,1.16,0,0,1-1.039-1.368,1.2,1.2,0,0,1,1.377-.977,13.8,13.8,0,0,1,7.411,2.915c.106.083.218.156.348.249a14,14,0,0,1,4.927-2.641,13.793,13.793,0,0,1,5.6-.46,14.494,14.494,0,0,1-.867-5.338,13.892,13.892,0,0,1,9.291-12.7c1.061-.363,2.183-.55,3.277-.819h2.817a1.729,1.729,0,0,0,.326.109,13.97,13.97,0,0,1,11.729,10.1c.212.762.338,1.547.5,2.322v2.811a1.738,1.738,0,0,0-.107.325,13.683,13.683,0,0,1-3.99,8.14,14.018,14.018,0,0,1-6.352,3.655v.645q0,9.63,0,19.26a8.425,8.425,0,0,1-8.63,8.619q-6.745,0-13.491-.008a1.22,1.22,0,0,0-.969.4c-.992,1.024-2.01,2.023-3.023,3.026-.788.78-1.326.784-2.1.012q-8.671-8.649-17.339-17.3a13.6,13.6,0,0,1-3.672-6.35c-.163-.634-.278-1.281-.416-1.922Zm46.126-5.382a11.65,11.65,0,0,0,11.618-11.576,11.672,11.672,0,0,0-11.641-11.624,11.647,11.647,0,0,0-11.6,11.647A11.622,11.622,0,0,0-580.124,400.042Zm-23.485,31.428c5.753-5.771,11.689-11.627,17.5-17.628-1.937-.089-3.81-.087-5.683-.089-.987,0-1.285-.219-1.57-1.141-.4-1.3-.8-2.6-1.2-3.907-.059-.192-.132-.379-.249-.712-.072.233-.1.3-.114.368q-1,3.933-2,7.865c-.175.686-.556,1.082-1.12,1.111a1.232,1.232,0,0,1-1.211-.761c-.33-.641-.675-1.274-1.016-1.91-.27-.5-.544-1.006-.883-1.632-.061.216-.084.282-.1.349q-1,4.445-1.99,8.89c-.185.826-.549,1.2-1.2,1.2s-1.049-.36-1.246-1.162q-1.538-6.266-3.075-12.532c-.186-.755-.384-1.507-.608-2.386-1.01,1.91-1.965,3.675-2.878,5.461a1.477,1.477,0,0,1-1.481.9c-2.366-.025-4.733-.009-7.1-.009h-.6Zm6.675-3.335c4.165,0,8.172,0,12.179-.007a4.548,4.548,0,0,0,1.04-.152,6.113,6.113,0,0,0,4.755-6.214q.01-9.366,0-18.733c0-.2-.018-.409-.027-.6H-581.3v.736q0,9.366,0,18.733a3.739,3.739,0,0,1-3.906,3.9c-2.952,0-5.9,0-8.857.007a1.051,1.051,0,0,0-.651.143C-595.444,426.624-596.132,427.337-596.933,428.135Zm13.277-13.315-8.561,8.641c2.474,0,4.815.018,7.155-.01a1.369,1.369,0,0,0,1.4-1.434C-583.64,419.6-583.656,417.191-583.656,414.819Z" fill="#00ffac"/>
        <path id="Path_515" data-name="Path 515" d="M-572.119,500.673a1.152,1.152,0,0,1-1.187,1.166,1.184,1.184,0,0,1-1.153-1.212,1.147,1.147,0,0,1,1.169-1.124A1.127,1.127,0,0,1-572.119,500.673Z" transform="translate(-43.685 -105.442)" fill="#00ffac"/>
        <path id="Path_516" data-name="Path 516" d="M-375.916,409.81c-.793.8-1.533,1.523-2.234,2.281a.758.758,0,0,0-.039.607,3.523,3.523,0,0,1-2.528,4.5,3.531,3.531,0,0,1-4.3-2.711,3.522,3.522,0,0,1,4.518-4.048.7.7,0,0,0,.848-.217c.66-.687,1.346-1.349,2.073-2.072a6.634,6.634,0,0,0-4.4-1.262,6.885,6.885,0,0,0-6.319,5.372,8.741,8.741,0,0,0-.177,1.445,1.186,1.186,0,0,1-1.194,1.243,1.142,1.142,0,0,1-1.163-1.252,9.269,9.269,0,0,1,7.782-9.055,9.243,9.243,0,0,1,10.573,7.25,9.793,9.793,0,0,1,.186,1.914,1.1,1.1,0,0,1-1.146,1.144,1.118,1.118,0,0,1-1.18-1.116A7.17,7.17,0,0,0-375.916,409.81Zm-4.472,3.987a1.208,1.208,0,0,0-1.145-1.174,1.209,1.209,0,0,0-1.188,1.128,1.2,1.2,0,0,0,1.17,1.2A1.207,1.207,0,0,0-380.388,413.8Z" transform="translate(-198.579 -25.34)" fill="#00ffac"/>
      </g>
    </g>
  </g>
</svg>
