<svg version="1.2" xmlns="http://www.w3.org/2000/svg" viewBox="0 0 94 94" width="94" height="94"><style>.a{opacity:.1;fill:#00ffac}.b{fill:#00ffac}</style><path class="a" d="m0 20c0-11 9-20 20-20h54c11 0 20 9 20 20v54c0 11-9 20-20 20h-54c-11 0-20-9-20-20z"/><path fill-rule="evenodd" class="b" d="m17 47.9c0.2-0.7 0.3-1.4 0.5-2.1q0.2-0.9 0.5-1.7 0.4-0.8 0.8-1.5 0.4-0.8 1-1.5 0.5-0.7 1.1-1.3 0.2-0.1 0.3-0.2 0.2-0.1 0.4-0.2 0.2 0 0.4 0 0.2 0 0.4 0.1 0.1 0.1 0.3 0.3 0.1 0.1 0.2 0.3 0.1 0.1 0.1 0.3 0 0.2 0 0.4-0.1 0.1-0.1 0.2-0.1 0.2-0.2 0.3 0 0.1-0.1 0.2-0.1 0.1-0.2 0.1-0.7 0.8-1.3 1.8-0.6 0.9-1 1.9-0.4 1-0.6 2.1-0.2 1.1-0.1 2.2 0 0.5 0.1 1 0.1 0.5 0.2 0.9 0.1 0.5 0.2 1 0.1 0.5 0.2 0.9c0.1 0.4 0.3 0.5 0.7 0.5q3.9 0 7.8 0 0.1 0 0.2 0 0.1 0 0.2-0.1 0.1-0.1 0.2-0.1 0.1-0.1 0.1-0.3 1.9-3.5 3.8-7.1 0.1-0.2 0.2-0.4 0.1-0.1 0.3-0.3 0.2-0.1 0.4-0.2 0.2 0 0.4 0c0.6 0 0.9 0.4 1.1 1.2q1.6 6.2 3.1 12.4c0 0.1 0.1 0.2 0.2 0.5 0.4-1.8 0.7-3.4 1.1-5.1q0.3-1.2 0.5-2.3 0-0.2 0.1-0.4 0.1-0.2 0.2-0.4 0.2-0.1 0.4-0.2 0.1-0.1 0.3-0.1c0.6-0.1 1 0.1 1.4 0.8q0.8 1.5 1.7 3.1c0 0.1 0.1 0.2 0.2 0.4q0.6-2.3 1.2-4.5 0.6-2.4 1.2-4.8c0.2-0.8 0.6-1.1 1.2-1.1 0.6 0 1 0.3 1.2 1q1.2 3.7 2.3 7.5 0.1 0.2 0.2 0.5 3.2 0 6.4 0 0 0 0.1 0 0-0.1 0.1-0.1 0-0.1 0.1-0.1 0-0.1 0.1-0.1 0.4-1.1 0.6-2.3 0.2-1.2 0.2-2.4-0.1-1.2-0.4-2.4-0.3-1.1-0.9-2.2 0-0.1-0.1-0.1 0-0.1-0.1-0.1 0-0.1-0.1-0.1-0.1-0.1-0.2-0.1-0.9-0.4-1.8-0.9-0.8-0.5-1.6-1.2-0.8-0.6-1.5-1.3-0.7-0.8-1.3-1.6 0-0.1-0.1-0.2-0.1 0-0.2-0.1-0.1 0-0.1-0.1-0.1 0-0.2 0-1.4-0.4-2.8-0.4-1.3 0-2.7 0.3-1.3 0.4-2.5 1-1.3 0.7-2.3 1.6-0.1 0.1-0.2 0.2-0.1 0.1-0.2 0.2-0.1 0.1-0.2 0.1-0.1 0.1-0.2 0.2-0.2 0-0.4 0-0.2 0.1-0.4 0-0.1 0-0.3-0.1-0.2-0.1-0.3-0.3-0.6-0.6-1.3-1.1-0.7-0.5-1.5-0.9-0.8-0.4-1.6-0.7-0.9-0.2-1.7-0.3c-0.4-0.1-0.7-0.1-1-0.2q-0.3 0-0.5-0.1-0.2-0.1-0.3-0.3-0.2-0.2-0.2-0.5-0.1-0.2-0.1-0.4 0.1-0.3 0.2-0.5 0.1-0.2 0.3-0.3 0.2-0.1 0.5-0.2 0.2 0 0.4 0 1 0.1 2 0.3 1 0.2 1.9 0.6 1 0.4 1.9 0.9 0.8 0.5 1.6 1.1 0.2 0.1 0.4 0.3 0.5-0.5 1.1-0.9 0.6-0.4 1.2-0.7 0.6-0.3 1.3-0.6 0.6-0.3 1.3-0.5 0.7-0.2 1.4-0.3 0.7-0.1 1.4-0.2 0.7-0.1 1.4 0 0.7 0 1.4 0.1-0.2-0.7-0.4-1.3-0.2-0.7-0.3-1.4-0.1-0.6-0.1-1.3-0.1-0.7-0.1-1.4 0.1-2.1 0.8-4.1 0.7-2 1.9-3.7 1.3-1.7 3-2.9 1.6-1.3 3.6-2c1.1-0.3 2.2-0.5 3.3-0.8 0.1 0 2.9 0 2.9 0q0 0 0.1 0.1 0 0 0.1 0 0 0 0.1 0 2 0.3 3.9 1.1 1.9 0.8 3.4 2.2 1.6 1.3 2.7 3.1 1.1 1.7 1.7 3.7c0.2 0.8 0.3 1.6 0.5 2.3 0 0.1 0 2.9 0 2.9q-0.1 0.1-0.1 0.1 0 0 0 0.1 0 0 0 0.1-0.2 1.1-0.5 2.2-0.3 1.1-0.8 2.2-0.5 1-1.2 2-0.7 0.9-1.5 1.7-0.7 0.7-1.4 1.2-0.7 0.6-1.5 1.1-0.8 0.4-1.7 0.8-0.9 0.3-1.8 0.6c0 6.4 0 13.4 0 19.9q0.2 1.7-0.6 3.3c-0.4 1.1-1 2-1.8 2.8-0.8 0.8-1.8 1.5-2.9 1.9-1 0.4-2.2 0.6-3.3 0.6q-6.7 0-13.5 0-0.1 0-0.3 0-0.1 0-0.2 0.1-0.1 0-0.3 0.1-0.1 0.1-0.2 0.2-1.4 1.5-3 3c-0.8 0.8-1.3 0.8-2.1 0q-8.6-8.6-17.3-17.3-0.7-0.6-1.3-1.4-0.5-0.7-1-1.5-0.5-0.8-0.8-1.7-0.4-0.8-0.6-1.7c-0.2-0.7-0.3-1.3-0.4-2zm46.1-5.3q2.2 0 4.5-0.9c1.4-0.6 2.6-1.5 3.7-2.5 1.1-1.1 1.9-2.4 2.5-3.8 0.6-1.4 0.9-2.9 0.9-4.4 0-1.5-0.3-3.1-0.9-4.5-0.5-1.4-1.4-2.6-2.5-3.7-1.1-1.1-2.3-2-3.8-2.5-1.4-0.6-2.9-0.9-4.4-0.9-1.5 0-3 0.3-4.4 0.9-1.5 0.5-2.7 1.4-3.8 2.5-1.1 1.1-1.9 2.4-2.5 3.8-0.6 1.4-0.9 2.9-0.9 4.4 0 1.5 0.3 3 0.9 4.4 0.6 1.4 1.4 2.7 2.5 3.8 1.1 1.1 2.4 1.9 3.8 2.5 1.4 0.6 2.9 0.9 4.4 0.9zm-23.5 31.4c5.8-5.8 11.7-11.6 17.5-17.6-1.9-0.1-3.8-0.1-5.6-0.1-1 0-1.3-0.2-1.6-1.2q-0.6-1.9-1.2-3.9c-0.1-0.2-0.1-0.4-0.3-0.7 0 0.2-0.1 0.3-0.1 0.4q-1 3.9-2 7.8c-0.2 0.7-0.5 1.1-1.1 1.2q-0.2 0-0.4-0.1-0.2 0-0.3-0.1-0.2-0.1-0.3-0.3-0.1-0.1-0.2-0.3-0.5-1-1-1.9c-0.3-0.5-0.6-1-0.9-1.6-0.1 0.2-0.1 0.2-0.1 0.3q-1 4.4-2 8.9c-0.2 0.8-0.5 1.2-1.2 1.2-0.7 0-1-0.4-1.2-1.2q-1.6-6.2-3.1-12.5c-0.2-0.8-0.4-1.5-0.6-2.4-1 1.9-2 3.7-2.9 5.5q-0.1 0.2-0.2 0.4-0.2 0.1-0.4 0.3-0.2 0.1-0.4 0.1-0.3 0.1-0.5 0.1-3.5-0.1-7.1 0h-0.6zm6.7-3.4c4.2 0 8.2 0 12.2 0q0.1 0 0.2 0 0.2 0 0.3 0 0.1 0 0.3-0.1 0.1 0 0.2 0 1.1-0.3 2-0.8 0.9-0.6 1.5-1.5 0.7-0.8 1-1.9 0.3-1 0.3-2 0-9.4 0-18.8 0-0.3-0.1-0.6h-2.3c0 6.3 0 13.2 0 19.5q0.1 0.8-0.2 1.5-0.3 0.7-0.9 1.3-0.5 0.6-1.3 0.8-0.7 0.3-1.5 0.3-4.4 0-8.8 0-0.1 0-0.2 0-0.1 0-0.2 0-0.1 0-0.1 0.1-0.1 0-0.2 0c-0.7 0.7-1.4 1.4-2.2 2.2zm13.3-13.3l-8.6 8.7c2.5 0 4.8 0 7.2-0.1q0.2 0.1 0.5-0.1 0.3-0.1 0.5-0.3 0.2-0.2 0.3-0.4 0.1-0.3 0.1-0.6 0-3.6 0-7.2z"/><path class="b" d="m27.4 37.7q0 0.3 0 0.5-0.1 0.2-0.3 0.4-0.2 0.1-0.4 0.2-0.2 0.1-0.4 0.1-0.3 0-0.5-0.1-0.2-0.1-0.4-0.3-0.1-0.1-0.2-0.4-0.1-0.2-0.1-0.4 0-0.2 0.1-0.5 0.1-0.2 0.3-0.3 0.1-0.2 0.3-0.3 0.2 0 0.5 0 0.2 0 0.4 0 0.2 0.1 0.4 0.3 0.2 0.2 0.3 0.4 0.1 0.2 0 0.4z"/><path fill-rule="evenodd" class="b" d="m68.8 27c-0.8 0.8-1.6 1.5-2.3 2.3q0 0 0 0.1-0.1 0.1-0.1 0.2 0 0 0 0.1 0.1 0.1 0.1 0.2 0.2 0.7 0.1 1.4 0 0.7-0.4 1.4-0.4 0.6-0.9 1-0.6 0.5-1.3 0.7-0.7 0.1-1.5 0-0.7-0.1-1.3-0.5-0.6-0.4-1-1-0.4-0.5-0.5-1.3-0.2-0.9 0.1-1.8 0.3-0.8 1-1.5 0.7-0.6 1.6-0.8 0.9-0.2 1.8 0.1 0.1 0 0.2 0.1 0.1 0 0.2-0.1 0.1 0 0.2-0.1 0.1 0 0.2-0.1 1.1-1 2.1-2.1-0.5-0.3-1-0.6-0.5-0.3-1.1-0.4-0.6-0.2-1.1-0.2-0.6-0.1-1.2-0.1-1.1 0.1-2.2 0.5-1 0.4-1.9 1.2-0.8 0.7-1.4 1.7-0.6 0.9-0.8 2-0.1 0.2-0.1 0.4 0 0.2 0 0.3-0.1 0.2-0.1 0.4 0 0.2 0 0.4 0 0.2-0.1 0.4-0.1 0.3-0.2 0.4-0.2 0.2-0.4 0.3-0.3 0.1-0.5 0.1-0.2 0-0.5-0.1-0.2-0.1-0.4-0.3-0.1-0.1-0.2-0.4-0.1-0.2-0.1-0.4 0.1-1.7 0.6-3.2 0.6-1.5 1.7-2.8 1-1.2 2.5-2 1.4-0.8 3-1.1c1.2-0.2 2.4-0.2 3.5 0.1 1.2 0.2 2.3 0.7 3.3 1.4 0.9 0.7 1.8 1.5 2.4 2.5 0.7 1 1.2 2.1 1.4 3.3q0 0.2 0.1 0.4 0 0.3 0 0.5 0.1 0.2 0.1 0.5 0 0.2 0 0.5 0 0.2-0.1 0.4-0.1 0.2-0.2 0.4-0.2 0.2-0.4 0.2-0.2 0.1-0.5 0.1-0.2 0-0.4-0.1-0.2 0-0.4-0.2-0.2-0.2-0.3-0.4 0-0.2 0-0.4-0.1-0.5-0.1-1.1-0.1-0.5-0.3-1-0.2-0.5-0.4-1-0.2-0.5-0.5-0.9zm-4.5 4q0-0.3-0.1-0.5-0.1-0.2-0.3-0.4-0.1-0.1-0.3-0.2-0.2-0.1-0.5-0.1-0.2 0-0.4 0.1-0.2 0.1-0.4 0.2-0.1 0.2-0.2 0.4-0.1 0.2-0.1 0.4 0 0.2 0 0.5 0.1 0.2 0.3 0.3 0.2 0.2 0.4 0.3 0.2 0.1 0.4 0.1 0.2 0 0.5-0.1 0.2-0.1 0.3-0.2 0.2-0.2 0.3-0.4 0.1-0.2 0.1-0.4z"/></svg>