<svg xmlns="http://www.w3.org/2000/svg" width="94" height="94" viewBox="0 0 94 94">
  <g id="Group_506" data-name="Group 506" transform="translate(-4356 -2564)">
    <rect id="Rectangle_166" data-name="Rectangle 166" width="93" height="94" rx="7" transform="translate(4357 2564)" fill="#7649f2" opacity="0.1"/>
    <g id="Group_491" data-name="Group 491" transform="translate(-443 99)">
      <rect id="Rectangle_167" data-name="Rectangle 167" width="94" height="94" transform="translate(4799 2465)" fill="none"/>
      <g id="Group_490" data-name="Group 490" transform="translate(5530.711 1402)">
        <path id="Path_517" data-name="Path 517" d="M-682.126,1080a3.179,3.179,0,0,1,2.253,2.16,2.346,2.346,0,0,1,.132.859c-.078.6.267.778.725,1a6.72,6.72,0,0,1,4.068,4.667,15.916,15.916,0,0,1,.038,3.253c1.234.322,2.5.6,3.734.988a3.444,3.444,0,0,1,2.49,3.069,3.352,3.352,0,0,1-1.968,3.36,11.353,11.353,0,0,1-2.019.463,1.8,1.8,0,0,0,.173.212,9.3,9.3,0,0,1,2.744,5.793.158.158,0,0,1,0,.058c-.326,1.036.325,1.757.79,2.555a47.694,47.694,0,0,1,5.732,15.164,21.715,21.715,0,0,1-.324,10.418c-.764,2.559-2.157,4.618-4.789,5.583-.451.165-.925.269-1.388.4h-2.223c-1.006-.186-2.013-.37-3.018-.558-2.189-.411-4.368-.88-6.568-1.218-1.3-.2-2.634-.171-3.948-.292-.568-.053-1-.066-1.383.509a4.669,4.669,0,0,1-2.512,1.56h-1.638a5.147,5.147,0,0,1-2.705-1.719,4.988,4.988,0,0,1-2.793,1.719h-1.521a1.492,1.492,0,0,0-.249-.124,4.318,4.318,0,0,1-3.378-4.116c-.092-2.124-.124-4.258-.019-6.38.061-1.237-.682-2.072-1.093-3.077a.392.392,0,0,0-.279-.165,2.037,2.037,0,0,1-1.737-1.747,24.063,24.063,0,0,1-.7-3.839,42.92,42.92,0,0,1,.087-9.577,16.21,16.21,0,0,1,3.3-8.063,1.792,1.792,0,0,0,.374-1.036c.025-4.138.021-8.277.011-12.415a8.963,8.963,0,0,0-.127-1.57,11.849,11.849,0,0,0-2.048-4.353,3.339,3.339,0,0,1-.565-1.375,2.052,2.052,0,0,1,1.511-2.163h5.147a2.709,2.709,0,0,0,.316.122,4.109,4.109,0,0,1,2.787,1.964,24.275,24.275,0,0,1,1.553,3.757,18.4,18.4,0,0,1,.476,2.692c.383-.6.769-1.181,1.116-1.781a.748.748,0,0,0-.011-.495c-.2-.771-.43-1.537-.638-2.307a2.677,2.677,0,0,1,1.668-3.4,2.675,2.675,0,0,1,3.369,1.637c.166.388.324.779.49,1.179l.917-.214a3.067,3.067,0,0,1,1.242-2.55,9.66,9.66,0,0,1,1.1-.6Zm-4.53,36.811c-.228.9-.516,1.191-1.108,1.172a.93.93,0,0,1-.959-1.038c.031-1.587-1.176-2.556-1.709-3.85-1.009.933-1.989,1.825-2.946,2.742a.709.709,0,0,0-.177.547q.35,1.983.769,3.953a.669.669,0,0,0,.407.431,16.226,16.226,0,0,0,1.614.234c.682.083,1.047.441,1.031,1.03a1,1,0,0,1-1.152.966c-.557-.01-1.114-.066-1.7-.1a3.188,3.188,0,0,0,1.421,2.289.989.989,0,0,1,.249,1.4.975.975,0,0,1-1.4.216,4.959,4.959,0,0,1-2.307-3.5c-.159-1.076-.138-2.177-.259-3.261-.092-.832-.28-1.654-.442-2.578-.762.633-1.392,1.186-2.052,1.7a4.692,4.692,0,0,0-1.6,2.52c-.114.392-.235.783-.344,1.177a4.758,4.758,0,0,1-1.608,2.694c.249.457.475.907.733,1.338a18.075,18.075,0,0,0,8.615,7.354,20.209,20.209,0,0,0,6.624,1.746c1.495.107,2.993.175,4.487.285.573.042,1.142.156,1.708.237a3.135,3.135,0,0,0,.123-.4,10.966,10.966,0,0,1,1.7-4.251,18.545,18.545,0,0,0,1.445-2.6,7.228,7.228,0,0,0,.659-3.633c-.173-1.642-1.182-2.891-1.983-4.312a3.864,3.864,0,0,1-2.735,1.674,1,1,0,0,1-1.162-.815.945.945,0,0,1,.822-1.141,2.177,2.177,0,0,0,1.559-1.111,4.29,4.29,0,0,0,.622-2.008c.16-1.72.5-3.426.831-5.125.186-.964.491-1.9.741-2.849-2.588-1.061-2.588-1.061-3.492-3.079a14.981,14.981,0,0,1-7.093-.646,8.4,8.4,0,0,1-1.664,4.282,1.545,1.545,0,0,0-.243,1.316c.364,1.726,1.637,2.578,3.107,3.216.575.25.905.664.776,1.182a1.039,1.039,0,0,1-1.257.766C-686.212,1116.935-686.416,1116.872-686.656,1116.811Zm9.942,20.166c1.314.274,2.6.574,3.9.8a8.026,8.026,0,0,0,3.246.064,5.412,5.412,0,0,0,3.937-3.943,19.667,19.667,0,0,0,.406-10.055,41.772,41.772,0,0,0-2.982-9.506c-.809-1.808-1.759-3.552-2.564-5.162-1.079.294-2.008.534-2.926.809a.687.687,0,0,0-.4.38c-.212.626-.4,1.263-.55,1.906a1.738,1.738,0,0,0,0,.841c.7,2.428,1.974,4.3,4.562,5.1a5.555,5.555,0,0,1,3.246,3.413.962.962,0,0,1-.511,1.277.961.961,0,0,1-1.263-.4c-.108-.161-.191-.339-.285-.51a4.278,4.278,0,0,0-2.538-2.183,5.891,5.891,0,0,1-1.986-1.072,27.531,27.531,0,0,1-2.156-2.208c.021-.054-.006-.007-.016.043a5.818,5.818,0,0,0,.93,4.458,11.453,11.453,0,0,1,1.821,4.079,1.085,1.085,0,0,0,.41.6,14.823,14.823,0,0,1,3.909,4.376,2.763,2.763,0,0,0,1,.929c.619.346.9.775.7,1.347a1.052,1.052,0,0,1-1.364.577,8.013,8.013,0,0,1-1-.457c-.256.38-.482.769-.76,1.116a.967.967,0,0,1-1.394.226,1.021,1.021,0,0,1-.211-1.409,2.855,2.855,0,0,0,.366-.594c.158-.514.514-1.154.342-1.545a6.449,6.449,0,0,0-2.09-2.364,14.141,14.141,0,0,1-2.177,4.865A8.679,8.679,0,0,0-676.714,1136.977Zm-26.891-20.515c0,.7-.053,1.41.011,2.107.142,1.552.326,3.1.534,4.644.036.265.341.734.406.715a3.174,3.174,0,0,0,.965-.524c.122-.091.163-.3.219-.47a11.721,11.721,0,0,0,.382-1.226,7.951,7.951,0,0,1,2.936-4.565c2.064-1.691,4.06-3.473,6-5.3a12.176,12.176,0,0,0,2.995-4.075c.863-2.048.473-2.937-1.6-3.74-1.667-.646-3.341-1.274-5-1.95a2.142,2.142,0,0,0-1.641-.085,7.205,7.205,0,0,0-1.561.77,11,11,0,0,0-4.115,6.727A23.508,23.508,0,0,0-703.605,1116.462Zm20.356-23.011a17.568,17.568,0,0,1,2.342-.9c1.092-.252,2.223-.337,3.333-.516.2-.033.529-.136.564-.268a4.535,4.535,0,0,0-.571-4.123,6.411,6.411,0,0,0-3.069-2.14c-.959-.344-1.106-.558-1.108-1.585,0-.332.014-.665-.013-1a.985.985,0,0,0-.91-.911.95.95,0,0,0-.985.809c-.058.363-.042.738-.064,1.107a1.025,1.025,0,0,1-.958,1.119c-.7.157-1.4.308-2.1.487a1.068,1.068,0,0,1-1.494-.708q-.376-.887-.714-1.79c-.166-.44-.44-.734-.923-.548-.45.173-.457.559-.33.984.274.913.5,1.841.786,2.751a1.627,1.627,0,0,1-.235,1.479,17.165,17.165,0,0,0-1.6,2.9,27.334,27.334,0,0,0-1.382,10.308.449.449,0,0,0,.229.336c.671.257,1.349.5,2.036.71.329.1.627.077.773-.363a14.6,14.6,0,0,1,3.042-5.016,3.332,3.332,0,0,0,1.013-2.2,4.539,4.539,0,0,1,.341-1.413c.548-1.5,1.367-2.727,3.119-2.961a1.11,1.11,0,0,1,1.38.85,1.014,1.014,0,0,1-.982,1.14A1.882,1.882,0,0,0-683.249,1093.451Zm1.191,11.572c.969-.089,1.939-.17,2.906-.273a.656.656,0,0,0,.447-.207,5.347,5.347,0,0,0,.982-1.811,19.306,19.306,0,0,0,.008-3.422c-.03-.7.148-1.064.8-1.294a8.594,8.594,0,0,1,4.316-.358,1.507,1.507,0,0,0,1.863-1.076c.2-.778-.224-1.421-1.128-1.775a14.6,14.6,0,0,0-6.563-.708,8.449,8.449,0,0,0-3.4.971,11.63,11.63,0,0,0-4,3.792,24.777,24.777,0,0,0-1.951,3.509c-.391.831-.255,1,.538,1.41A10.693,10.693,0,0,0-682.058,1105.023Zm-17.625-4.444c1-.253,1.946-.5,2.9-.73.523-.125,1.054-.219,1.582-.322.37-.073.477-.288.475-.664-.014-3.26-.011-6.519-.008-9.779a11.426,11.426,0,0,0-1.386-5.493,2.5,2.5,0,0,0-2.072-1.509c-1.261-.076-2.527-.063-3.792-.083a3.047,3.047,0,0,0-.424.059c.278.432.524.8.76,1.18a11.547,11.547,0,0,1,1.78,4.286,17.787,17.787,0,0,1,.18,2.678C-699.672,1093.7-699.683,1097.188-699.683,1100.579Zm24.2-.266c0,.385,0,.655,0,.924a6.62,6.62,0,0,1-1.533,4.477c-.789.894-.621,1.476.489,1.939a5.56,5.56,0,0,0,3.325.191,1.5,1.5,0,0,0,1.4-1.859A7.108,7.108,0,0,0-675.48,1100.313Zm-24.189,30.673c0,1.72-.06,3.279.019,4.83a2.432,2.432,0,0,0,2.66,2.159,2.5,2.5,0,0,0,2.242-2.828.57.57,0,0,0-.239-.355A21.616,21.616,0,0,1-699.669,1130.986Zm10.98,6.448-3.926-1.375a2.358,2.358,0,0,0,1.622,1.8A2.34,2.34,0,0,0-688.689,1137.434Z" fill="#7649f2"/>
      </g>
    </g>
  </g>
</svg>
