<svg xmlns="http://www.w3.org/2000/svg" width="94" height="94" viewBox="0 0 94 94">
  <g id="Group_505" data-name="Group 505" transform="translate(-4357 -2685)">
    <rect id="Rectangle_168" data-name="Rectangle 168" width="93" height="94" rx="7" transform="translate(4357 2685)" fill="#fd5d5d" opacity="0.1"/>
    <g id="Group_496" data-name="Group 496" transform="translate(-494 60)">
      <rect id="Rectangle_169" data-name="Rectangle 169" width="94" height="94" transform="translate(4851 2625)" fill="none"/>
      <g id="Group_495" data-name="Group 495" transform="translate(74.596 23.5)">
        <g id="Layer_2" data-name="Layer 2" transform="translate(4833.004 2661.004)">
          <path id="Path_518" data-name="Path 518" d="M9.748,2A7.748,7.748,0,1,0,17.5,9.748,7.748,7.748,0,0,0,9.748,2Zm0,14.2A6.457,6.457,0,1,1,16.2,9.748,6.457,6.457,0,0,1,9.748,16.2Z" transform="translate(0 0)" fill="#fd5d5d"/>
          <path id="Path_519" data-name="Path 519" d="M8.149,7.448a.646.646,0,0,0-.646.646v4.39a.646.646,0,1,0,1.291,0V8.094A.646.646,0,0,0,8.149,7.448Zm0-2.647a.684.684,0,0,0-.659.671v.1a.607.607,0,0,0,.659.607.671.671,0,0,0,.646-.646V5.382A.581.581,0,0,0,8.149,4.8Z" transform="translate(1.599 0.815)" fill="#fd5d5d"/>
        </g>
        <g id="Group_494" data-name="Group 494" transform="translate(4475.454 1193.04)">
          <path id="Path_520" data-name="Path 520" d="M337.338,1428.387a5.669,5.669,0,0,1,5.054-.378,3.062,3.062,0,0,1,2.141,3.133c0,.838,0,1.676,0,2.616.649-.619,1.188-1.171,1.767-1.679a13.513,13.513,0,0,1,8.607-3.358c1.493-.063,2.991-.024,4.486-.024a4.227,4.227,0,0,1,4.41,3.583,9.614,9.614,0,0,1,.162,1.726,1,1,0,0,1-1.053,1.11c-.641,0-1.017-.409-1.087-1.1a9.268,9.268,0,0,0-.295-1.77,1.756,1.756,0,0,0-1.711-1.373,56.563,56.563,0,0,0-7.067.331,10.962,10.962,0,0,0-6.957,4.406,31.8,31.8,0,0,0-4.219,7.715c-1.317,3.115-2.617,6.239-4.013,9.32a11.882,11.882,0,0,1-3.069,4.1c-2.356,2.038-5.083,2.314-7.985,1.606-1.054-.257-2.08-.628-3.319-1.009.368,1.2.639,2.341,1.058,3.42a34.262,34.262,0,0,0,6.139,9.744,56.733,56.733,0,0,0,12.705,11.3c.711.451,1.488.8,2.244,1.18a3.047,3.047,0,0,0,3.115-.216,12.822,12.822,0,0,0,3.777-3.745,47.443,47.443,0,0,0,7.847-18.774,26.889,26.889,0,0,0,.461-5.047,14.034,14.034,0,0,0-3.044-8.335,1.581,1.581,0,0,1-.306-1.141,1.189,1.189,0,0,1,.813-.74,1.411,1.411,0,0,1,1.072.459,16.611,16.611,0,0,1,2.888,5.313,16.845,16.845,0,0,1,.505,8.324,51.089,51.089,0,0,1-7.978,20.509,16.742,16.742,0,0,1-4.711,4.88,5.2,5.2,0,0,1-5.324.458,34.291,34.291,0,0,1-7.481-4.89A55.911,55.911,0,0,1,324.4,1465.9a21.864,21.864,0,0,1-3.276-8.338,19.668,19.668,0,0,1,2.051-11.669,20.67,20.67,0,0,1,6.809-7.77.84.84,0,0,0,.428-1.029,11.691,11.691,0,0,0-1.967-4.5,3.42,3.42,0,0,1-.242-3.948,5.972,5.972,0,0,1,4.278-3.126,3.511,3.511,0,0,1,3.121,1.033C336.211,1427.107,336.737,1427.746,337.338,1428.387Zm-7.645,28.23a5.473,5.473,0,0,0,3.987-2.064,22.352,22.352,0,0,0,3.58-6.378.725.725,0,0,0,.026-.452,18.794,18.794,0,0,0-2.977-6.589,8.786,8.786,0,0,0-1.7-1.473.859.859,0,0,0-1.159.069,45.191,45.191,0,0,0-3.594,3.183,17.908,17.908,0,0,0-4.692,11.513.655.655,0,0,0,.249.523A14.113,14.113,0,0,0,329.693,1456.617Zm1.646-23.825c.439,1.477.848,2.881,1.281,4.277a.662.662,0,0,0,.353.386,5.778,5.778,0,0,1,3.071,2.374c.86,1.344,1.555,2.793,2.317,4.2.1.179.166.373.295.666.133-.31.207-.491.288-.669a64.6,64.6,0,0,1,2.771-5.923c1.023-1.739.438-3.489.654-5.1l-4.268.253c0,.89.02,1.892-.006,2.893a1.072,1.072,0,0,1-1.465,1.059,1.093,1.093,0,0,1-.7-1.171c-.017-1.628-.009-3.258-.109-4.882a9.621,9.621,0,0,0-.52-1.924l-.215.027A5.223,5.223,0,0,1,331.339,1432.792Zm1.912-5.112c-1.732-.084-3.6,1.716-3.255,3.095C331.85,1430.674,332.9,1429.686,333.25,1427.679Zm5.009,3.06a3.956,3.956,0,0,0,3.839-.374C340.918,1429.39,338.741,1429.6,338.259,1430.739Z" transform="translate(0)" fill="#fd5d5d"/>
          <path id="Path_521" data-name="Path 521" d="M402.822,1557.362c-.211,1.06-.414,2.122-.637,3.181-.1.466-.353.91-.856.883a1.725,1.725,0,0,1-1.124-.5,1.518,1.518,0,0,1-.091-1.077q.308-1.776.717-3.533c.115-.492.032-.777-.461-.984-.674-.283-1.318-.64-2.023-.989-.127.2-.25.381-.357.568-.974,1.7-1.965,3.395-2.9,5.116a3.33,3.33,0,0,0-.373,1.371,6.65,6.65,0,0,0,.075,2.78c.346.822,1.261,1.407,1.935,2.087.943.951,1.9,1.89,2.838,2.843.612.62.656,1.19.154,1.69-.484.483-1.087.43-1.689-.169-1.069-1.063-2.129-2.134-3.329-3.337v3.572c0,.759.011,1.518,0,2.276a1.052,1.052,0,0,1-1.075,1.182,1.022,1.022,0,0,1-1.078-1.164c-.012-3.325-.006-6.65-.007-9.976v-.875c-1.154.7-2.2,1.312-3.221,1.962-.137.087-.188.341-.237.528-.274,1.055-.532,2.115-.8,3.17-.2.774-.686,1.126-1.332.981a1.086,1.086,0,0,1-.78-1.463c.225-.975.474-1.945.74-2.91.1-.359-.023-.535-.292-.778a2.811,2.811,0,0,0-3.6-.521,3.293,3.293,0,0,1-.949.31,1.038,1.038,0,0,1-1.263-.717.99.99,0,0,1,.607-1.314c1.106-.406,2.223-.794,3.357-1.109a1.478,1.478,0,0,1,.995.227c.694.4,1.357.859,2.008,1.327a.763.763,0,0,0,1.006.046c1.314-.84,2.874-1.416,3.938-2.49,1.047-1.057,1.518-2.658,2.4-3.913a9.133,9.133,0,0,0,1.725-6.525,18.847,18.847,0,0,1-.011-2.475c.014-.823.388-1.24,1.074-1.239s1.082.436,1.086,1.239c.01,1.674.016,3.348-.006,5.021-.005.408.088.674.493.82a15.936,15.936,0,0,1,6.515,4.851,1.678,1.678,0,0,1,.437,1.164,1.028,1.028,0,0,1-1.769.52c-.578-.549-1.093-1.163-1.636-1.749Z" transform="translate(-49.091 -98.484)" fill="#fd5d5d"/>
          <path id="Path_522" data-name="Path 522" d="M471.244,1487.351a3.961,3.961,0,0,1,2.613-2.452c-.009-.065,0-.128-.023-.148-2.265-1.8-4.725-3.121-7.731-3.015a8.442,8.442,0,0,0-4.623,1.571c-1.381.975-2.66,2.1-3.981,3.154-.852.683-1.658,1.436-2.568,2.03a4.556,4.556,0,0,1-1.8.585c-.563.082-.892-.341-.99-.883a1.114,1.114,0,0,1,.734-1.21,7.008,7.008,0,0,0,1.626-.846c1.737-1.362,3.392-2.833,5.154-4.161a12.118,12.118,0,0,1,5.241-2.395,10.913,10.913,0,0,1,6.361,1.071,20.389,20.389,0,0,1,5.749,3.855,3.444,3.444,0,0,1,.971,3.106,4.927,4.927,0,0,1-4.045,4.454,2.734,2.734,0,0,1-2.83-1.488,4.6,4.6,0,0,0-8.158-.131c-.246.461-.526.829-1.115.793a1.072,1.072,0,0,1-.873-1.663,6.208,6.208,0,0,1,4.093-3.391A6.531,6.531,0,0,1,471.244,1487.351Zm4.583-.428c-1.583-.26-2.524.409-2.693,1.891-.038.333.046.955.17.98a1.736,1.736,0,0,0,1.171-.162A3.216,3.216,0,0,0,475.827,1486.923Z" transform="translate(-107.703 -44.338)" fill="#fd5d5d"/>
        </g>
      </g>
    </g>
  </g>
</svg>
