<svg xmlns="http://www.w3.org/2000/svg" width="94" height="94" viewBox="0 0 94 94">
  <g id="Group_509" data-name="Group 509" transform="translate(-4356 -2219)">
    <g id="Group_485" data-name="Group 485" transform="translate(-258 -460)">
      <rect id="Rectangle_160" data-name="Rectangle 160" width="93" height="94" rx="7" transform="translate(4615 2679)" fill="#f58220" opacity="0.1"/>
      <g id="Group_484" data-name="Group 484" transform="translate(-257 -68)">
        <g id="high" transform="translate(4884.003 2756)">
          <path id="Union_3" data-name="Union 3" d="M39.28,56.228H19.748a9.052,9.052,0,0,1-9.032-9.05V27.055q.42.493.875.956L12.859,29.3V47.178a6.9,6.9,0,0,0,6.891,6.894H39.28c.686-2.183,3.423-3.771,6.794-3.771s6.106,1.588,6.793,3.772H54.11a1.078,1.078,0,0,1,0,2.156H52.867C52.18,58.412,49.444,60,46.073,60S39.967,58.412,39.28,56.228Zm1.971-1.078c0,1.274,1.98,2.694,4.822,2.694s4.821-1.419,4.821-2.694-1.981-2.7-4.821-2.7S41.251,53.876,41.251,55.15ZM22.5,50.861a1.072,1.072,0,1,1,1.072,1.071A1.072,1.072,0,0,1,22.5,50.861Zm-3.132,0a1.072,1.072,0,1,1,1.071,1.071A1.072,1.072,0,0,1,19.37,50.861ZM16.239,50a1.071,1.071,0,1,1,1.071,1.071A1.071,1.071,0,0,1,16.239,50ZM15,47.159a1.071,1.071,0,1,1,1.071,1.071A1.072,1.072,0,0,1,15,47.159Zm18.75-1.087a2.947,2.947,0,0,1-2.109-.882L13.18,26.5a15.792,15.792,0,0,1-.509-21.683,15.112,15.112,0,0,1,21.08-1.027,15.111,15.111,0,0,1,25.013,9.486,13.385,13.385,0,0,0-2.44-1.411A12.973,12.973,0,0,0,34.514,6.022a1.1,1.1,0,0,1-1.524,0,12.9,12.9,0,0,0-9.245-3.879l-.18,0a12.921,12.921,0,0,0-9.329,4.141A13.629,13.629,0,0,0,14.7,25L33.168,43.684a.82.82,0,0,0,1.168,0L43,34.916a13.333,13.333,0,0,0,1.877,1.15L35.86,45.19a2.942,2.942,0,0,1-2.1.882Zm5.893-21.964a11.25,11.25,0,1,1,11.25,11.25A11.25,11.25,0,0,1,39.645,24.107Zm2.142,0A9.107,9.107,0,1,0,50.895,15,9.108,9.108,0,0,0,41.787,24.107ZM48.6,26.4a3.226,3.226,0,0,1,3.675-5.19l2.146-2.146a1.071,1.071,0,0,1,1.516,1.515l-2.146,2.146A3.226,3.226,0,0,1,48.6,26.4Zm1.221-2.293a1.072,1.072,0,1,0,1.072-1.071A1.072,1.072,0,0,0,49.823,24.107Zm-30.2-2.437a9.441,9.441,0,0,1-3.012-6.758A9.042,9.042,0,0,1,19.3,8.35a1.071,1.071,0,0,1,1.515,1.516,6.919,6.919,0,0,0-2.059,5.017A7.317,7.317,0,0,0,21.1,20.116a1.071,1.071,0,1,1-1.473,1.555ZM67.352,10.7l-1.888-.267a1.071,1.071,0,0,1,.3-2.122l1.889.266h0a1.071,1.071,0,0,1-.148,2.132A1.082,1.082,0,0,1,67.352,10.7ZM0,9.718A1.071,1.071,0,0,1,.924,8.582l1.888-.266h0a1.071,1.071,0,1,1,.3,2.122L1.223,10.7A1.074,1.074,0,0,1,0,9.718Zm3.268-3.6L1.252,4.407A1.071,1.071,0,1,1,2.637,2.773L4.656,4.484A1.071,1.071,0,1,1,3.271,6.118Zm60.524-.124a1.071,1.071,0,0,1,.125-1.51l2.018-1.711a1.072,1.072,0,1,1,1.385,1.635L65.3,6.118h0a1.071,1.071,0,0,1-1.51-.124ZM61,4.122a1.072,1.072,0,0,1-1-1.139L60.134,1a1.071,1.071,0,0,1,2.138.141l-.13,1.981a1.07,1.07,0,0,1-1.068,1C61.05,4.124,61.026,4.124,61,4.122Zm-54.57-1L6.3,1.142A1.072,1.072,0,1,1,8.441,1l.13,1.981a1.071,1.071,0,0,1-1,1.139l-.071,0A1.071,1.071,0,0,1,6.433,3.123Z" transform="translate(-0.003 8)" fill="#f58220"/>
        </g>
        <rect id="Rectangle_159" data-name="Rectangle 159" width="94" height="94" transform="translate(4871 2747)" fill="none"/>
      </g>
    </g>
  </g>
</svg>
