<svg xmlns="http://www.w3.org/2000/svg" width="94" height="94" viewBox="0 0 94 94">
  <g id="Group_508" data-name="Group 508" transform="translate(-4356 -2331)">
    <rect id="Rectangle_161" data-name="Rectangle 161" width="93" height="94" rx="7" transform="translate(4357 2331)" fill="#53f8ff" opacity="0.1"/>
    <g id="Group_487" data-name="Group 487" transform="translate(-550 -492)">
      <rect id="Rectangle_162" data-name="Rectangle 162" width="94" height="94" transform="translate(4906 2823)" fill="none"/>
      <g id="Group_486" data-name="Group 486" transform="translate(-192 261.918)">
        <path id="Union_4" data-name="Union 4" d="M6.45,53.25a4.5,4.5,0,0,1-4.112-2.673L.388,46.191A4.5,4.5,0,0,1,0,44.364V4.5A4.5,4.5,0,0,1,4.5,0h51A4.5,4.5,0,0,1,60,4.5V44.364a4.5,4.5,0,0,1-.388,1.827l-1.95,4.387A4.5,4.5,0,0,1,53.55,53.25ZM3.708,49.969A3,3,0,0,0,6.45,51.75h47.1a3,3,0,0,0,2.742-1.782l1.049-2.361A4.484,4.484,0,0,1,55.5,48H4.5a4.484,4.484,0,0,1-1.841-.393ZM1.5,43.5a3,3,0,0,0,3,3h51a3,3,0,0,0,3-3v-.75a3,3,0,0,0-3-3H51.75a3.75,3.75,0,0,1-7.5,0h-4.5a3.75,3.75,0,0,1-7.5,0h-4.5a3.75,3.75,0,0,1-7.5,0h-4.5a3.75,3.75,0,0,1-7.5,0H4.5a3,3,0,0,0-3,3Zm54-5.25a4.483,4.483,0,0,1,3,1.146V4.5a3,3,0,0,0-3-3H4.5a3,3,0,0,0-3,3V39.4a4.483,4.483,0,0,1,3-1.146H8.562a3.752,3.752,0,0,1,6.876,0h5.124a3.752,3.752,0,0,1,6.876,0h5.124a3.752,3.752,0,0,1,6.876,0h5.124a3.752,3.752,0,0,1,6.876,0Zm-5.823,0a2.25,2.25,0,0,0-3.354,0h0a2.25,2.25,0,0,1,3.354,0Zm-12,0a2.25,2.25,0,0,0-3.354,0h0a2.25,2.25,0,0,1,3.354,0Zm-12,0a2.25,2.25,0,0,0-3.354,0h0a2.25,2.25,0,0,1,3.354,0Zm-12,0a2.25,2.25,0,0,0-3.354,0h0a2.25,2.25,0,0,1,3.354,0ZM9,33.75A3.75,3.75,0,0,1,5.25,30V9A3.75,3.75,0,0,1,9,5.25H51A3.75,3.75,0,0,1,54.75,9V30A3.75,3.75,0,0,1,51,33.75ZM6.75,9V30A2.25,2.25,0,0,0,9,32.25H51A2.25,2.25,0,0,0,53.25,30V9A2.25,2.25,0,0,0,51,6.75H9A2.25,2.25,0,0,0,6.75,9Zm9.032,20.465L13.692,22.5H11.25a.75.75,0,0,1,0-1.5h3a.75.75,0,0,1,.718.534L16.5,26.64l1.522-5.072,2.243-11.216a.75.75,0,0,1,1.471,0l1.7,8.481,1.357-4.071a.75.75,0,0,1,1.423,0L28.291,21h3.4l1.717-5.837a.75.75,0,0,1,1.462.106l.988,6.913.171-.629A.749.749,0,0,1,36.75,21h1.235l1.4-8.743a.75.75,0,0,1,1.476-.029L42.615,21H44.25a.75.75,0,0,1,.7.493l.332.912.091-1.093a.75.75,0,0,1,.748-.688h3.75a.75.75,0,1,1,0,1.5h-3.06L46.5,25.937a.75.75,0,0,1-1.452.194L43.725,22.5H42a.75.75,0,0,1-.735-.6L40.207,16.61l-.842,5.259a.749.749,0,0,1-.74.631h-1.3l-.974,3.572a.75.75,0,0,1-1.466-.091L33.871,18.9l-.9,3.064a.75.75,0,0,1-.72.538h-4.5a.75.75,0,0,1-.712-.513L25.5,17.372l-1.539,4.616a.75.75,0,0,1-1.447-.09L21,14.324,19.485,21.9c0,.023-.01.046-.017.069l-2.25,7.5a.75.75,0,0,1-1.437,0Z" transform="translate(5115 2581.082)" fill="#53f8ff"/>
      </g>
    </g>
  </g>
</svg>
