<svg xmlns="http://www.w3.org/2000/svg" width="94" height="94" viewBox="0 0 94 94">
  <g id="Group_504" data-name="Group 504" transform="translate(-4356 -2811)">
    <rect id="Rectangle_170" data-name="Rectangle 170" width="93" height="94" rx="7" transform="translate(4357 2811)" fill="#f900bf" opacity="0.1"/>
    <g id="Group_498" data-name="Group 498" transform="translate(-525 188)">
      <rect id="Rectangle_171" data-name="Rectangle 171" width="94" height="94" transform="translate(4881 2623)" fill="none"/>
      <g id="Group_497" data-name="Group 497" transform="translate(4074.333 1267.412)">
        <path id="Path_523" data-name="Path 523" d="M823.667,1401.674a3.47,3.47,0,0,1,2.3-2.454,3.16,3.16,0,0,1,3.792,1.652.807.807,0,0,0,.959.576,6.432,6.432,0,0,1,.881-.007c-.278-.98-.588-1.92-.806-2.88a12.556,12.556,0,0,1-.076-4.952.915.915,0,0,1,1.009-.842.874.874,0,0,1,.735,1.076,12.223,12.223,0,0,0,.234,5.058c.21.728.518,1.427.779,2.141a.528.528,0,0,0,.6.408c.485-.035.975-.009,1.515-.009-.28-.592-.575-1.133-.8-1.7a9.8,9.8,0,0,1,7.531-13.506,9.341,9.341,0,0,1,8.211,2.5c1.058.98,2.019,2.065,3.062,3.141.972-.971,1.87-1.863,2.762-2.761a9.994,9.994,0,0,1,4.366-2.622,9.888,9.888,0,0,1,11.188,14.573c-.049.084-.1.171-.139.258-.007.013,0,.035.014.125.544,0,1.1.034,1.653-.02.166-.016.371-.247.451-.427a11.256,11.256,0,0,0-1.162-11.965,11.472,11.472,0,0,0-17.345-1.322c-.336.327-.659.669-1,.994a.906.906,0,0,1-1.471-.008c-.67-.628-1.3-1.311-2.018-1.872a11.5,11.5,0,0,0-16.923,3.083c-.061.1-.118.2-.186.3a.9.9,0,0,1-1.217.348.875.875,0,0,1-.294-1.268,13.052,13.052,0,0,1,3.638-4.086,13.279,13.279,0,0,1,17.215,1.2c.165.161.333.319.5.478a13.391,13.391,0,0,1,22.052,14.545H877.3c.9-1.825,2.228-2.622,3.783-2.28a3.242,3.242,0,0,1,2.586,3.073,3.209,3.209,0,0,1-2.5,3.255c-1.586.4-2.877-.346-3.9-2.27-.747,0-1.508-.018-2.268.014a.844.844,0,0,0-.5.288c-1.043,1.135-2.059,2.3-3.111,3.422a.867.867,0,0,1-1.3.073.9.9,0,0,1,.083-1.347c.784-.735,1.6-1.435,2.4-2.15l-.191-.29c-.7,0-1.411-.026-2.113.019-.171.011-.339.24-.488.39q-6.912,6.939-13.82,13.883c-1.575,1.582-3.014,1.574-4.6-.017-.414-.415-.838-.821-1.24-1.248a.891.891,0,1,1,1.244-1.269c.47.441.913.911,1.371,1.366.73.726,1.15.728,1.874,0q5.648-5.673,11.3-11.347a16.723,16.723,0,0,0,1.643-1.786c-.487,0-.974-.018-1.46,0a1.013,1.013,0,0,1-1.058-.662c-.235-.514-.493-1.017-.792-1.629-.113.247-.194.41-.262.578q-.958,2.359-1.911,4.72c-.182.453-.389.87-.973.859-.619-.012-.8-.47-.949-.952q-.834-2.621-1.67-5.241c-.057-.178-.127-.351-.252-.693l-1.023,3.547a3.533,3.533,0,0,1-.118.391.883.883,0,0,1-1.081.563.859.859,0,0,1-.588-1.065c.243-.964.527-1.918.8-2.875.355-1.258.719-2.513,1.066-3.773.126-.457.351-.791.862-.811.539-.021.793.309.945.786.643,2.026,1.3,4.049,1.952,6.072.047.147.105.29.188.514.7-1.714,1.351-3.359,2.051-4.984a1.382,1.382,0,0,1,.687-.709c.489-.176.846.128,1.064.587.411.864.849,1.715,1.238,2.589a.631.631,0,0,0,.708.432c.663-.03,1.329-.029,1.991,0a.833.833,0,0,0,.778-.387,7.829,7.829,0,0,0,.956-8.6,8.074,8.074,0,0,0-12.956-2.218c-1.086,1.07-2.153,2.16-3.231,3.238-.64.64-1.054.644-1.684.016-1.122-1.118-2.218-2.263-3.363-3.355a8.082,8.082,0,0,0-11.808,10.995.93.93,0,0,0,.634.286c.838.026,1.852.287,2.468-.089s.81-1.4,1.188-2.147c.1-.191.185-.388.277-.582.2-.415.408-.816.961-.808.579.008.78.432.972.875q.72,1.666,1.449,3.328c.085.193.182.381.331.689.1-.294.174-.482.23-.676q1.013-3.483,2.022-6.968c.033-.112.065-.225.1-.335a.871.871,0,0,1,.917-.666.848.848,0,0,1,.819.711q.649,2.553,1.285,5.109,1.126,4.514,2.248,9.03c.037.15.093.295.171.539.19-.647.347-1.2.519-1.757.19-.609.61-.87,1.134-.721a.9.9,0,0,1,.561,1.227c-.449,1.616-.908,3.23-1.362,4.845-.133.474-.394.837-.922.829-.558-.009-.8-.4-.92-.9q-1.749-7.013-3.508-14.022c-.031-.122-.082-.238-.172-.5-.6,2.062-1.164,3.982-1.726,5.9-.1.356-.22.708-.312,1.067-.116.454-.335.8-.845.838-.543.042-.794-.3-.987-.75-.6-1.379-1.207-2.752-1.812-4.127l-.239-.545c-.285.587-.549,1.076-.765,1.586a1.148,1.148,0,0,1-1.273.8c-.437-.037-.88-.007-1.435-.007.226.243.362.4.507.544l7.914,7.928a2.816,2.816,0,0,1,.394.432.845.845,0,0,1-.106,1.168.808.808,0,0,1-1.119.066,3.5,3.5,0,0,1-.428-.4q-4.6-4.606-9.19-9.223a1.456,1.456,0,0,0-1.271-.526c-.46.046-.928.01-1.535.01.226.272.366.47.535.639,5.092,5.11,10.17,10.233,15.289,15.316a4.306,4.306,0,0,0,6.243-.186q4.98-4.973,9.932-9.973c.687-.69,1.14-.787,1.591-.34.426.422.317.955-.33,1.605q-4.883,4.9-9.767,9.807a6.177,6.177,0,0,1-9.287.02q-7.17-7.179-14.328-14.37c-.671-.676-1.233-1.461-1.861-2.182a.844.844,0,0,0-.484-.32c-.777-.034-1.557-.015-2.343-.015a3.445,3.445,0,0,1-1.663,2,3.233,3.233,0,0,1-4.451-1.632c-.083-.2-.162-.4-.242-.6Zm4.684.633a1.461,1.461,0,1,0-1.449,1.477A1.51,1.51,0,0,0,828.351,1402.307Zm52.083,1.477a1.464,1.464,0,1,0-1.449-1.477A1.513,1.513,0,0,0,880.434,1403.784Z" fill="#f900bf"/>
      </g>
    </g>
  </g>
</svg>
