<svg xmlns="http://www.w3.org/2000/svg" width="94" height="94" viewBox="0 0 94 94">
  <g id="Group_503" data-name="Group 503" transform="translate(-4356 -2923)">
    <g id="Group_502" data-name="Group 502">
      <rect id="Rectangle_173" data-name="Rectangle 173" width="93" height="94" rx="7" transform="translate(4357 2923)" fill="#f8d716" opacity="0.1"/>
      <g id="Group_501" data-name="Group 501" transform="translate(-450 356)">
        <rect id="Rectangle_172" data-name="Rectangle 172" width="94" height="94" transform="translate(4806 2567)" fill="none"/>
        <g id="Group_500" data-name="Group 500" transform="translate(116.209 -20.498)">
          <g id="Group_499" data-name="Group 499" transform="translate(2906.68 1287.874)">
            <path id="Path_524" data-name="Path 524" d="M1844.635,1316.624c.781.149,1.569.269,2.343.45a16.831,16.831,0,0,1,12.885,13.821,16.547,16.547,0,0,1-5.911,15.794c-1.131.984-2.264,1.966-3.411,2.963.914.433,1.8.813,2.641,1.267a13.963,13.963,0,0,1,1.652,1.1c.67.5.808,1,.449,1.469s-.868.455-1.53-.062a11.791,11.791,0,0,0-7.6-2.576,12.006,12.006,0,1,0,12.06,13.722,11.785,11.785,0,0,0-1.494-7.719c-.474-.827-.448-1.319.09-1.627s.975-.077,1.451.743a13.768,13.768,0,1,1-25.463,9.39.579.579,0,0,0-.051-.127,11.053,11.053,0,0,1-1.725.928,3.055,3.055,0,0,1-3.1-.7q-7.5-6.5-15-13.009c-2.448-2.124-4.923-4.218-7.328-6.389a16.262,16.262,0,0,1-5.368-10.487,1.624,1.624,0,0,0-.108-.323v-3.164c.237-1.12.4-2.262.723-3.358a16.544,16.544,0,0,1,5.673-8.4.875.875,0,0,1,1.343.026c.347.416.274.886-.209,1.33-.1.093-.2.182-.31.269a15.149,15.149,0,0,0-.362,22.969c7.3,6.388,14.651,12.726,21.982,19.083.822.713,1.4.625,2.3.04a3.455,3.455,0,0,0,1.449-2.937,13.579,13.579,0,0,1,11.126-11.774,33.43,33.43,0,0,1,4.129-.158.907.907,0,0,0,.534-.132,67.719,67.719,0,0,0,6.257-5.723,15.128,15.128,0,0,0-7.546-24.355,14.823,14.823,0,0,0-14.792,3.835c-.454.429-.886.882-1.327,1.324-.818.819-1.113.8-1.942.024a30.449,30.449,0,0,0-3.4-3.031,14.784,14.784,0,0,0-14.25-1.664c-.128.047-.248.115-.377.158a.908.908,0,0,1-1.226-.473.85.85,0,0,1,.575-1.166c1.506-.448,3.033-.829,4.552-1.234.185-.049.375-.083.563-.124h3.047a2.355,2.355,0,0,0,.384.11,16.623,16.623,0,0,1,9.386,4.2c.579.515,1.126,1.066,1.761,1.671.285-.306.54-.6.811-.87a16.653,16.653,0,0,1,7.832-4.549c.919-.233,1.86-.376,2.791-.561Z" transform="translate(0)" fill="#f8d716"/>
            <path id="Path_525" data-name="Path 525" d="M1868.426,1389.974c-.464,1.105-.9,2.143-1.334,3.183a.929.929,0,0,1-.87.667.864.864,0,0,1-.828-1.184c.733-1.825,1.491-3.642,2.3-5.436a1.04,1.04,0,0,1,.818-.481,1.1,1.1,0,0,1,.781.551c.383.807.664,1.662.988,2.5a1.554,1.554,0,0,0,1.717,1.2c1.167.009,2.335,0,3.531,0v-1.608h-2.59c-.966,0-1.119-.1-1.467-1.006-.835-2.162-1.662-4.326-2.509-6.483a2.631,2.631,0,0,0-.425-.565,2.9,2.9,0,0,0-.389.539c-1.842,4.381-3.668,8.769-5.518,13.147a1.671,1.671,0,0,1-.631.784c-.472.265-.923-.013-1.227-.655q-1.636-3.461-3.267-6.925c-.058-.123-.109-.251-.173-.371-.237-.443-.423-.457-.691-.026q-.941,1.516-1.856,3.049c-.242.406-.517.768-1.042.7-.488-.058-.686-.434-.844-.865q-1.481-4.061-3-8.109a3.049,3.049,0,0,0-.394-.589,2.963,2.963,0,0,0-.447.606c-.79,1.97-1.574,3.943-2.328,5.928a1.145,1.145,0,0,1-1.233.843c-.913-.024-1.827-.006-2.763-.006v1.564c1.372,0,2.715.024,4.056-.012a1.242,1.242,0,0,0,1.078-.876c.214-.5.409-1.011.6-1.522.171-.461.382-.882.954-.881s.778.407.949.878q1.266,3.487,2.564,6.962a3.219,3.219,0,0,0,.358.568,2.907,2.907,0,0,0,.509-.492c.694-1.107,1.369-2.226,2.043-3.345.224-.373.513-.739.963-.587a1.542,1.542,0,0,1,.823.7c1.268,2.611,2.489,5.246,3.738,7.867a2.784,2.784,0,0,0,.459.543,3.194,3.194,0,0,0,.384-.546c.532-1.234,1.045-2.476,1.567-3.714a.865.865,0,0,1,1.008-.609.829.829,0,0,1,.713.816,1.352,1.352,0,0,1-.129.561q-.813,1.972-1.644,3.936a2.066,2.066,0,0,1-3.827.073q-1.492-3.142-2.971-6.29c-.082-.174-.169-.346-.3-.61-.522.854-.992,1.647-1.487,2.424a1.986,1.986,0,0,1-2.875.724,3.056,3.056,0,0,1-.942-1.283c-.641-1.588-1.2-3.209-1.793-4.817-.033-.089-.076-.173-.161-.366-.934,1.626-2.417,1.8-4.016,1.735-.858-.037-1.719.022-2.577-.016a1.909,1.909,0,0,0-1.5.541,4.038,4.038,0,0,1-5.683-.333,4.1,4.1,0,0,1,5.823-5.755,1.232,1.232,0,0,0,.983.375,21.037,21.037,0,0,1,2.108.005.794.794,0,0,0,.935-.619c.664-1.789,1.383-3.557,2.077-5.335a2.007,2.007,0,0,1,1.647-1.4,2.034,2.034,0,0,1,2.33,1.507c.751,2.027,1.492,4.057,2.238,6.086.087.236.18.469.3.794.382-.619.737-1.173,1.069-1.74a2.091,2.091,0,0,1,3.83.2c.789,1.7,1.6,3.384,2.4,5.075.082.173.168.345.3.616.6-1.423,1.157-2.756,1.714-4.089,1.06-2.534,2.125-5.065,3.173-7.6a2.112,2.112,0,0,1,2.048-1.536,2.089,2.089,0,0,1,2.011,1.584c.76,1.962,1.527,3.92,2.259,5.892a.732.732,0,0,0,.85.568c.779-.042,1.562.012,2.342-.025a1.2,1.2,0,0,0,.7-.295,4.111,4.111,0,1,1,2.613,7.023,3.774,3.774,0,0,1-2.555-1.148,1.192,1.192,0,0,0-.972-.386c-1.21.024-2.421.009-3.632.009a3.342,3.342,0,0,1-3.589-2.405C1868.563,1390.254,1868.51,1390.154,1868.426,1389.974Zm11.21-2.119a2.34,2.34,0,1,0,2.339,2.355A2.372,2.372,0,0,0,1879.635,1387.855Zm-40.979,0a2.34,2.34,0,1,0,2.312,2.382A2.372,2.372,0,0,0,1838.657,1387.855Z" transform="translate(-29.023 -53.07)" fill="#f8d716"/>
          </g>
          <path id="clock" d="M14.825,11.025h-2.85V6.275a.475.475,0,1,0-.95,0V11.5h0a.475.475,0,0,0,.475.474h3.325a.475.475,0,1,0,0-.95ZM11.5,2A9.5,9.5,0,1,0,21,11.5,9.5,9.5,0,0,0,11.5,2Zm0,18.05a8.55,8.55,0,1,1,8.55-8.55A8.55,8.55,0,0,1,11.5,20.05Z" transform="translate(4742 2639)" fill="#f8d716"/>
        </g>
      </g>
    </g>
  </g>
</svg>
