<svg xmlns="http://www.w3.org/2000/svg" width="93" height="94" viewBox="0 0 93 94">
  <g id="Group_98" data-name="Group 98" transform="translate(-186 -538)">
    <rect id="Rectangle_48" data-name="Rectangle 48" width="93" height="94" rx="7" transform="translate(186 538)" fill="#00ffab" opacity="0.1"/>
    <g id="Group_51" data-name="Group 51" transform="translate(185.545 538.152)">
      <rect id="Rectangle_53" data-name="Rectangle 53" width="93" height="94" transform="translate(0.455 -0.152)" fill="none"/>
      <g id="heartbeat" transform="translate(17.376 30.012)">
        <path id="Path_377" data-name="Path 377" d="M32.936,30.009l2.954,3.728-6.9,7.517a2.665,2.665,0,0,1-3.9,0l-9.8-10.676,4.285-5.737,4.188,8.848a3.668,3.668,0,0,0,2.99,2.07l.194.012h.1a3.657,3.657,0,0,0,2.99-1.562Z" transform="translate(2.007 -7.966)" fill="#00ffab"/>
        <path id="Path_378" data-name="Path 378" d="M44.887,28.294l-2.711,2.953L36.9,24.6a3.62,3.62,0,0,0-2.845-1.38h-.121a3.649,3.649,0,0,0-2.869,1.561l-2.118,3.05-4.079-8.618a3.659,3.659,0,0,0-2.929-2.07c-.121-.012-.242-.012-.363-.012a3.6,3.6,0,0,0-2.9,1.452l-7.057,9.465A10.39,10.39,0,0,1,9.833,17.279a9.975,9.975,0,0,1,8.63-6.355,12.054,12.054,0,0,1,9.889,4.127A11.89,11.89,0,0,1,37.418,10.9c.278,0,.557.012.835.024a10,10,0,0,1,8.63,6.355A10.445,10.445,0,0,1,44.887,28.294Z" transform="translate(0.696 -10.9)" fill="#00ffab"/>
        <path id="Path_379" data-name="Path 379" d="M44.638,37.771h-.019a1.211,1.211,0,0,1-.929-.458l-7.88-9.936-4.765,6.876a1.211,1.211,0,0,1-2.089-.171L23.043,21.595,15.449,31.787a1.211,1.211,0,0,1-.97.487H2.21a1.21,1.21,0,1,1,0-2.421H13.871L22.3,18.534a1.192,1.192,0,0,1,1.09-.481,1.208,1.208,0,0,1,.974.686l5.88,12.414,4.5-6.5a1.211,1.211,0,0,1,1.943-.063l7.974,10.055,3.687-4.367a1.207,1.207,0,0,1,.924-.43H57.89a1.21,1.21,0,0,1,0,2.421H49.841l-4.279,5.068A1.209,1.209,0,0,1,44.638,37.771Z" transform="translate(-1 -9.396)" fill="#00ffab"/>
      </g>
    </g>
  </g>
</svg>
