<svg xmlns="http://www.w3.org/2000/svg" width="39.331" height="39" viewBox="0 0 39.331 39">
  <g id="Group_51" data-name="Group 51" transform="translate(0.085)">
    <rect id="Rectangle_53" data-name="Rectangle 53" width="39.331" height="39" rx="8" transform="translate(-0.085)" fill="#29dca1"/>
    <g id="heartbeat" transform="translate(4.916 11)">
      <path id="Path_377" data-name="Path 377" d="M24.4,27.509l1.525,1.925-3.562,3.881a1.376,1.376,0,0,1-2.013,0L15.288,27.8,17.5,24.84l2.162,4.569a1.894,1.894,0,0,0,1.544,1.069l.1.006h.05a1.888,1.888,0,0,0,1.544-.806Z" transform="translate(-6.358 -16.127)" fill="#fff"/>
      <path id="Path_378" data-name="Path 378" d="M27.558,19.881l-1.4,1.525-2.725-3.431a1.869,1.869,0,0,0-1.469-.713H21.9a1.884,1.884,0,0,0-1.481.806l-1.094,1.575-2.106-4.45a1.889,1.889,0,0,0-1.512-1.069c-.063-.006-.125-.006-.188-.006a1.856,1.856,0,0,0-1.5.75l-3.644,4.887a5.365,5.365,0,0,1-.919-5.562,5.15,5.15,0,0,1,4.456-3.281,6.224,6.224,0,0,1,5.106,2.131A6.139,6.139,0,0,1,23.7,10.9c.144,0,.287.006.431.013a5.166,5.166,0,0,1,4.456,3.281A5.393,5.393,0,0,1,27.558,19.881Z" transform="translate(-4.022 -10.9)" fill="#fff"/>
      <path id="Path_379" data-name="Path 379" d="M23.532,28.231h-.01a.625.625,0,0,1-.48-.237l-4.069-5.13-2.46,3.55a.625.625,0,0,1-1.078-.089l-3.054-6.448L8.461,25.141a.626.626,0,0,1-.5.251H1.625a.625.625,0,1,1,0-1.25H7.646L12,18.3a.615.615,0,0,1,.563-.248.624.624,0,0,1,.5.354l3.036,6.41,2.325-3.354a.625.625,0,0,1,1-.032l4.117,5.192,1.9-2.255a.624.624,0,0,1,.477-.222h4.446a.625.625,0,1,1,0,1.25H26.219L24.01,28.01A.624.624,0,0,1,23.532,28.231Z" transform="translate(-1 -13.58)" fill="#fff"/>
    </g>
  </g>
</svg>
