<svg id="image" xmlns="http://www.w3.org/2000/svg" width="606" height="906" viewBox="0 0 606 906">
  <path id="Rectangle_100" data-name="Rectangle 100" d="M0,0H606a0,0,0,0,1,0,0V603A303,303,0,0,1,303,906h0A303,303,0,0,1,0,603V0A0,0,0,0,1,0,0Z" fill="#3b2d29"/>
  <path id="Rectangle_101" data-name="Rectangle 101" d="M0,0H482a0,0,0,0,1,0,0V581A241,241,0,0,1,241,822h0A241,241,0,0,1,0,581V0A0,0,0,0,1,0,0Z" transform="translate(62)" fill="#1f2026"/>
  <path id="Rectangle_99" data-name="Rectangle 99" d="M0,0H444a0,0,0,0,1,0,0V579A222,222,0,0,1,222,801h0A222,222,0,0,1,0,579V0A0,0,0,0,1,0,0Z" transform="translate(81)" fill="#12101a"/>
</svg>
