<svg xmlns="http://www.w3.org/2000/svg" xmlns:xlink="http://www.w3.org/1999/xlink" width="70.706" height="34.055" viewBox="0 0 70.706 34.055">
  <defs>
    <clipPath id="clip-path">
      <rect id="Rectangle_244" data-name="Rectangle 244" width="70.706" height="34.055" fill="none"/>
    </clipPath>
  </defs>
  <g id="logo" transform="translate(0 0)">
    <path id="Path_559" data-name="Path 559" d="M63.63,43.408l-1.154-3.16h-8.19l-1.154,3.16H48.844l7.09-18.331h4.892L67.89,43.408Zm-5.249-14.95-3.05,8.41H61.4Z" transform="translate(-27.608 -14.174)" fill="#121212"/>
    <g id="Group_661" data-name="Group 661" transform="translate(0 0)">
      <g id="Group_660" data-name="Group 660" clip-path="url(#clip-path)">
        <path id="Path_560" data-name="Path 560" d="M92.4,33.863a9.279,9.279,0,0,1,9.619-9.482,8.457,8.457,0,0,1,7.8,4.48l-3.353,1.649a5.021,5.021,0,0,0-4.452-2.666,5.682,5.682,0,0,0-5.607,6.019,5.682,5.682,0,0,0,5.607,6.019,4.97,4.97,0,0,0,4.452-2.666l3.353,1.621a8.507,8.507,0,0,1-7.8,4.507A9.279,9.279,0,0,1,92.4,33.863" transform="translate(-52.224 -13.78)" fill="#121212"/>
        <path id="Path_561" data-name="Path 561" d="M135.822,43.408V25.077h3.9v14.9h7.75v3.436Z" transform="translate(-76.769 -14.174)" fill="#121212"/>
        <path id="Path_562" data-name="Path 562" d="M9.738,5.621a2.933,2.933,0,1,1-2.93,2.935,2.931,2.931,0,0,1,2.93-2.935M16.214,19.3c-2.158,3.675-4.238,9.67-2.147,14.753H7.959c-5.147-3.708-6.888-9.33-7.6-15.988A73.163,73.163,0,0,1,.783.146s.629.4,1.386.8C1.744,12.949,8.281,13.1,9.384,13.055,10.818,12.993,18.4,12.63,22.551.393c.509-.133,1.6-.393,1.6-.393C22,10.068,19.606,13.524,16.214,19.3" transform="translate(0 0)" fill="#fff"/>
      </g>
    </g>
  </g>
</svg>
