<svg xmlns="http://www.w3.org/2000/svg" width="93" height="93" viewBox="0 0 93 93">
  <g id="Group_100" data-name="Group 100" transform="translate(-878 -538)">
    <rect id="Rectangle_50" data-name="Rectangle 50" width="93" height="93" rx="7" transform="translate(878 538)" fill="#764af1" opacity="0.1"/>
    <g id="Group_49" data-name="Group 49" transform="translate(877.536 538.143)">
      <rect id="Rectangle_54" data-name="Rectangle 54" width="93" height="93" transform="translate(0.464 -0.143)" fill="none"/>
      <g id="Group_44" data-name="Group 44" transform="translate(23.175 24.158)">
        <path id="Path_374" data-name="Path 374" d="M-486.133,356.632v-5.643c.029-.907.011-1.818.1-2.719a28.91,28.91,0,0,1,.515-3.768,29.033,29.033,0,0,1,3.845-8.728,29.719,29.719,0,0,1,5.986-7.144,11.808,11.808,0,0,1,3.17-2.007,3.789,3.789,0,0,1,5.15,1.756,15.959,15.959,0,0,1,1.119,2.67c.283.838.443,1.719.67,2.628a3.044,3.044,0,0,0,.9-2.08c-.047-3.259-.022-6.518-.016-9.78a3.533,3.533,0,0,1,.093-.854,1.751,1.751,0,0,1,1.7-1.314,1.757,1.757,0,0,1,1.732,1.339,3.713,3.713,0,0,1,.086.854c.006,3.259.022,6.52-.011,9.78-.007.79.573,1.109.975,1.7a15.783,15.783,0,0,1,1.659-5,3.9,3.9,0,0,1,3.026-2.206,5.06,5.06,0,0,1,2.83.661,17.327,17.327,0,0,1,5.04,4.177,35.4,35.4,0,0,1,6.15,9.86,18.738,18.738,0,0,1,1.653,6.526c.1,2.923.09,5.852.077,8.778a12,12,0,0,1-.666,4.243,3.748,3.748,0,0,1-2.537,2.515,7.819,7.819,0,0,1-4.3-.184,21.08,21.08,0,0,1-10.854-7.219,11.935,11.935,0,0,1-2.872-8.079c.1-3.029.155-6.06.219-9.091a.672.672,0,0,0-.119-.449c-.613-.6-1.248-1.184-1.839-1.739-.774.659-1.551,1.3-2.3,1.977a.71.71,0,0,0-.124.487c.064,3.106.148,6.212.2,9.32a10.687,10.687,0,0,1-.15,1.989,13.442,13.442,0,0,1-3.641,6.838,21.7,21.7,0,0,1-7.44,5.247,12.016,12.016,0,0,1-5.934,1.208,3.633,3.633,0,0,1-2.715-1.444,6.452,6.452,0,0,1-1.106-2.943C-485.978,358.073-486.043,357.351-486.133,356.632Z" transform="translate(486.133 -319.647)" fill="#764af1"/>
      </g>
    </g>
  </g>
</svg>
