<svg xmlns="http://www.w3.org/2000/svg" width="39.331" height="39" viewBox="0 0 39.331 39">
  <g id="Group_49" data-name="Group 49" transform="translate(0.085)">
    <rect id="Rectangle_54" data-name="Rectangle 54" width="39.331" height="39" rx="8" transform="translate(-0.085)" fill="#7649f2"/>
    <g id="Group_44" data-name="Group 44" transform="translate(9.916 10)">
      <path id="Path_374" data-name="Path 374" d="M-486.133,335.568v-2.429c.013-.39,0-.782.042-1.17a12.458,12.458,0,0,1,.222-1.622,12.5,12.5,0,0,1,1.655-3.757,12.794,12.794,0,0,1,2.577-3.076,5.083,5.083,0,0,1,1.365-.864,1.631,1.631,0,0,1,2.217.756,6.88,6.88,0,0,1,.482,1.149c.122.361.191.74.288,1.131a1.31,1.31,0,0,0,.389-.9c-.02-1.4-.009-2.806-.007-4.21a1.523,1.523,0,0,1,.04-.368.754.754,0,0,1,.733-.566.756.756,0,0,1,.745.577,1.6,1.6,0,0,1,.037.368c0,1.4.01,2.807,0,4.21,0,.34.247.478.419.731a6.794,6.794,0,0,1,.714-2.152,1.679,1.679,0,0,1,1.3-.95,2.178,2.178,0,0,1,1.218.284,7.458,7.458,0,0,1,2.17,1.8,15.238,15.238,0,0,1,2.647,4.244,8.066,8.066,0,0,1,.712,2.809c.044,1.259.039,2.519.033,3.779a5.164,5.164,0,0,1-.287,1.826,1.613,1.613,0,0,1-1.092,1.083,3.366,3.366,0,0,1-1.85-.079,9.076,9.076,0,0,1-4.673-3.108,5.138,5.138,0,0,1-1.237-3.478c.045-1.3.067-2.609.094-3.914a.289.289,0,0,0-.051-.193c-.264-.26-.537-.51-.792-.749-.333.284-.668.561-.991.851a.3.3,0,0,0-.053.21c.028,1.337.064,2.674.086,4.012a4.594,4.594,0,0,1-.064.856,5.787,5.787,0,0,1-1.567,2.944,9.34,9.34,0,0,1-3.2,2.259,5.172,5.172,0,0,1-2.555.52,1.564,1.564,0,0,1-1.169-.621,2.777,2.777,0,0,1-.476-1.267C-486.066,336.189-486.094,335.878-486.133,335.568Z" transform="translate(486.133 -319.647)" fill="#fff"/>
    </g>
  </g>
</svg>
