<svg version="1.2" xmlns="http://www.w3.org/2000/svg" viewBox="0 0 20 20" width="20" height="20"><style></style><path fill-rule="evenodd" d="m4.1 18.5q0 0-0.1 0-0.1 0-0.2 0-0.1 0-0.2 0-0.1 0-0.2-0.1-0.6-0.1-1.1-0.4-0.5-0.2-0.9-0.6-0.4-0.5-0.7-1-0.3-0.5-0.4-1.1-0.1-0.7 0-1.5 0.2-0.7 0.6-1.3 0.4-0.7 1.1-1.1 0.6-0.4 1.3-0.6 0.1 0 0.3-0.1 0.1 0 0.2 0 0.1 0 0.3 0 0.1 0 0.2 0l0.3-0.1q0.2 0 0.3 0 0.1-0.1 0.2-0.1 0.1-0.1 0.2-0.2 0.1-0.2 0.1-0.3 0.1-0.3 0.2-0.6 0.1-0.3 0.3-0.6 0.1-0.2 0.3-0.5 0.2-0.2 0.5-0.4l0.2-0.2 0.2-0.2-0.2-0.3q0 0-0.1-0.1 0-0.2-0.1-0.4-0.3-0.4-0.5-0.9-0.1-0.4-0.2-0.9 0-0.5 0.1-1 0.1-0.5 0.3-1 0.2-0.4 0.5-0.8 0.4-0.4 0.8-0.6 0.4-0.3 0.8-0.5 0.5-0.2 1-0.2 0 0 0.1-0.1 0.1 0 0.2 0 0 0 0.1 0 0.1 0 0.2 0 0.4 0 0.9 0.1 0.5 0.1 0.9 0.4 0.4 0.2 0.7 0.5 0.4 0.4 0.6 0.8 0.3 0.4 0.5 1 0.2 0.5 0.2 1.1 0 0.5-0.1 1.1-0.2 0.5-0.5 1 0 0-0.1 0.1 0 0-0.1 0.1 0 0.1 0 0.2-0.1 0-0.1 0.1 0 0.1 0 0.2 0 0.1 0.1 0.2 0 0 0 0.1 0.1 0.1 0.1 0.1 0.1 0.1 0.2 0.2 0 0 0 0 0.2 0.3 0.4 0.5 0.2 0.2 0.3 0.5 0.2 0.2 0.3 0.5 0.1 0.3 0.2 0.6 0 0.1 0 0.2 0.1 0.1 0.2 0.2 0.1 0 0.2 0.1 0.1 0 0.2 0l0.3 0.1q0.4 0 0.7 0 0.3 0 0.6 0.1 0.4 0.1 0.7 0.3 0.2 0.1 0.5 0.3 0.3 0.2 0.5 0.4 0.2 0.2 0.4 0.5 0.2 0.3 0.4 0.5 0.1 0.3 0.2 0.6 0.1 0.4 0.1 0.7 0.1 0.4 0 0.8 0 0.4-0.1 0.8-0.1 0.4-0.3 0.8-0.2 0.4-0.5 0.7-0.3 0.3-0.6 0.5-0.3 0.3-0.7 0.4-0.4 0.2-0.8 0.3-0.4 0.1-0.8 0.1-0.5 0-1-0.1-0.5-0.1-0.9-0.4-0.4-0.2-0.8-0.5-0.4-0.4-0.6-0.8-0.3-0.3-0.5-0.6-0.1-0.1-0.1-0.1-0.1-0.1-0.1-0.1-0.1 0-0.2 0 0 0-0.1 0 0 0 0 0 0 0-0.1 0 0 0 0 0 0 0 0 0-0.2 0-0.4 0.1-0.2 0-0.3 0-0.2 0-0.4 0.1-0.2 0-0.3 0-0.2 0-0.4 0-0.2-0.1-0.4-0.1-0.1 0-0.3 0-0.2-0.1-0.3-0.1-0.1 0-0.1 0 0 0 0 0 0 0-0.1 0 0 0 0 0-0.1 0-0.1 0-0.1 0-0.1 0-0.1 0-0.1 0.1-0.1 0-0.1 0.1-0.1 0-0.2 0.1 0 0.1-0.1 0.2-0.1 0.1-0.1 0.1-0.1 0.1-0.1 0.2-0.3 0.4-0.7 0.8-0.3 0.3-0.8 0.5-0.4 0.3-0.9 0.4-0.5 0.1-1 0.1zm0.6-6.7q-0.5 0-0.9 0.1-0.5 0-0.9 0.3-0.5 0.2-0.8 0.5-0.3 0.4-0.5 0.8-0.2 0.5-0.2 1 0 0.4 0.1 0.9 0.2 0.4 0.4 0.8 0.3 0.3 0.7 0.6 0.3 0.3 0.8 0.4 0.1 0 0.2 0.1 0.1 0 0.2 0 0.1 0 0.2 0 0.1 0 0.2 0 0.3 0 0.7-0.1 0.3-0.1 0.6-0.2 0.3-0.2 0.6-0.5 0.2-0.2 0.4-0.5 0.1-0.2 0.3-0.4 0-0.1 0.1-0.2l0.2-0.3-0.3-0.2q-0.3-0.3-0.5-0.6-0.3-0.3-0.5-0.6-0.2-0.4-0.3-0.7-0.2-0.4-0.2-0.8-0.1-0.1-0.1-0.2-0.1 0-0.1-0.1-0.1 0-0.2-0.1-0.1 0-0.2 0c0 0 0 0 0 0zm10 0.3q-0.1 0.4-0.2 0.8-0.2 0.4-0.4 0.7-0.2 0.4-0.5 0.7-0.2 0.3-0.5 0.6l-0.3 0.2 0.2 0.3q0.1 0.1 0.2 0.3 0.2 0.3 0.4 0.5 0.2 0.3 0.4 0.5 0.3 0.2 0.5 0.3 0.3 0.2 0.6 0.2 0.4 0.1 0.7 0.1 0.1 0 0.2 0 0.1 0 0.2 0 0.1-0.1 0.2-0.1 0.1 0 0.2 0 0.5-0.2 0.8-0.5 0.3-0.2 0.6-0.6 0.2-0.3 0.4-0.7 0.1-0.5 0.1-0.9 0-0.4-0.2-0.8-0.1-0.4-0.3-0.8-0.3-0.3-0.7-0.6-0.3-0.2-0.7-0.3-0.1-0.1-0.3-0.1-0.1 0-0.2 0-0.2-0.1-0.3-0.1-0.1 0-0.3 0-0.2 0-0.4 0l-0.4-0.1zm-4.7-4.4q-0.7 0-1.4 0.3-0.6 0.3-1.1 0.8-0.5 0.5-0.8 1.2-0.3 0.6-0.3 1.3 0 0.4 0.1 0.7 0 0.4 0.2 0.7 0.1 0.3 0.3 0.6 0.2 0.3 0.5 0.6 0.2 0.2 0.5 0.4 0.3 0.2 0.6 0.4 0.4 0.1 0.7 0.2 0.4 0 0.7 0 0.7 0 1.4-0.2 0.7-0.3 1.2-0.8 0.5-0.5 0.7-1.2 0.3-0.6 0.3-1.4 0-0.3 0-0.7-0.1-0.3-0.2-0.6-0.2-0.4-0.4-0.7-0.2-0.3-0.4-0.5-0.3-0.3-0.6-0.5-0.3-0.2-0.6-0.3-0.3-0.1-0.7-0.2-0.3-0.1-0.7-0.1zm0-5.8q-0.3 0-0.6 0.1-0.2 0.1-0.5 0.2-0.3 0.1-0.5 0.3-0.2 0.1-0.4 0.3-0.2 0.2-0.3 0.5-0.2 0.2-0.3 0.5-0.1 0.2-0.1 0.5 0 0.3 0 0.6 0 0.2 0.1 0.4 0 0.2 0.1 0.4 0.1 0.2 0.2 0.4 0.1 0.2 0.2 0.3l0.1 0.2 0.1 0.3 0.3-0.1q0.2-0.1 0.4-0.1 0.2-0.1 0.4-0.1 0.2 0 0.4 0 0.2-0.1 0.4-0.1 0.2 0 0.4 0.1 0.2 0 0.4 0 0.2 0 0.4 0.1 0.2 0 0.4 0.1l0.3 0.1 0.1-0.3 0.1-0.2q0.2-0.2 0.2-0.3 0.2-0.3 0.3-0.7 0.1-0.3 0.1-0.6 0.1-0.4 0-0.7-0.1-0.3-0.2-0.6-0.2-0.4-0.4-0.6-0.2-0.3-0.5-0.5-0.3-0.2-0.6-0.3-0.3-0.1-0.6-0.2-0.1 0-0.1 0-0.1 0-0.1 0-0.1 0-0.1 0-0.1 0-0.1 0z"/><path  d="m9.9 12q0 0-0.1 0-0.1-0.1-0.1-0.1-0.1 0-0.1 0-0.1-0.1-0.1-0.1-0.1-0.1-0.1-0.1-0.1-0.1-0.1-0.2 0 0 0-0.1 0-0.1 0-0.1 0-0.2 0-0.3 0.1-0.1 0.2-0.2 0.1-0.1 0.2-0.1 0.1-0.1 0.2-0.1h0.1q0.1 0 0.2 0.1 0.2 0 0.2 0.1 0.1 0.1 0.2 0.2 0 0.2 0 0.3 0 0.1 0 0.3-0.1 0.1-0.2 0.2-0.1 0.1-0.2 0.1-0.1 0.1-0.3 0.1z"/></svg>