<svg xmlns="http://www.w3.org/2000/svg" width="93.321" height="93.321" viewBox="0 0 93.321 93.321">
  <g id="Man" transform="translate(-1577 -546)">
    <rect id="Rectangle_51" data-name="Rectangle 51" width="93.321" height="93.321" rx="20" transform="translate(1577 546)" fill="#cba9a9"/>
    <rect id="Rectangle_62" data-name="Rectangle 62" width="93.32" height="93.321" transform="translate(1577 546)" fill="none"/>
    <g id="Group_585" data-name="Group 585">
      <path id="Path_411" data-name="Path 411" d="M128.423,1356.11a3.147,3.147,0,0,1-2.3-2.2,5.919,5.919,0,0,1-.139-1.4q-.012-13.182-.006-26.364v-.653l-.126-.026c-.16.349-.324.7-.478,1.047-.575,1.312-1.125,2.636-1.728,3.935a2.6,2.6,0,0,1-2.565,1.619,2.641,2.641,0,0,1-2.5-1.717,2.717,2.717,0,0,1,.07-2.252c2.04-4.684,4.064-9.374,6.136-14.044a4.3,4.3,0,0,1,4.2-2.715c2.929-.008,5.858,0,8.788-.006a4.433,4.433,0,0,1,4.343,2.866c1.048,2.36,2.065,4.734,3.1,7.1.972,2.229,1.955,4.453,2.918,6.687a2.784,2.784,0,0,1-1.5,3.924,2.712,2.712,0,0,1-3.455-1.457c-.67-1.456-1.291-2.933-1.934-4.4a1.646,1.646,0,0,0-.408-.619v.595q0,13.323.006,26.647a3.178,3.178,0,0,1-1.764,3.157c-.217.108-.449.186-.674.278h-1.248c-1.9-.675-2.414-2.1-2.393-4,.061-5.726.022-11.454.022-17.18v-.694h-2.744v.694q0,8.959,0,17.918a3.042,3.042,0,0,1-2.193,3.142.877.877,0,0,0-.176.117Z" transform="translate(1490.633 -734.04)" fill="#fff"/>
      <path id="Path_412" data-name="Path 412" d="M186.411,1234.94a5.557,5.557,0,1,1,5.546-5.551A5.566,5.566,0,0,1,186.411,1234.94Z" transform="translate(1437.645 -659.827)" fill="#fff"/>
    </g>
  </g>
</svg>
