<svg xmlns="http://www.w3.org/2000/svg" width="39.331" height="39" viewBox="0 0 39.331 39">
  <g id="Group_50" data-name="Group 50" transform="translate(-0.348)">
    <rect id="Rectangle_57" data-name="Rectangle 57" width="39.331" height="39" rx="8" transform="translate(0.348)" fill="#f8d716"/>
    <g id="Group_46" data-name="Group 46" transform="translate(10.348 9)">
      <path id="Path_381" data-name="Path 381" d="M15.757,5.366A8.7,8.7,0,0,1,9.4,7.955,8.7,8.7,0,0,1,3.034,5.366,8.635,8.635,0,0,1,.42-1.021,8.635,8.635,0,0,1,3.034-7.407,8.7,8.7,0,0,1,9.4-10a8.7,8.7,0,0,1,6.362,2.589,8.635,8.635,0,0,1,2.614,6.386A8.635,8.635,0,0,1,15.757,5.366ZM5.808,2.678A4.892,4.892,0,0,0,9.4,4.108a4.892,4.892,0,0,0,3.588-1.43,4.982,4.982,0,0,0,1.442-3.7,4.982,4.982,0,0,0-1.442-3.7A4.892,4.892,0,0,0,9.4-6.149a4.892,4.892,0,0,0-3.588,1.43,4.982,4.982,0,0,0-1.442,3.7A4.982,4.982,0,0,0,5.808,2.678Z" transform="translate(-0.42 9.996)" fill="#fff"/>
      <path id="Path_380" data-name="Path 380" d="M.423-3.861v-.773L2.518-6.771a2.092,2.092,0,0,0,.764-1.322.888.888,0,0,0-.262-.682.936.936,0,0,0-.665-.245,1.177,1.177,0,0,0-1.116.747L.406-8.763a2.042,2.042,0,0,1,.8-.91,2.177,2.177,0,0,1,1.142-.309,1.985,1.985,0,0,1,1.356.5,1.713,1.713,0,0,1,.567,1.356A2.9,2.9,0,0,1,3.237-6.181L1.874-4.814H4.381v.953Z" transform="translate(15.619 24.543)" fill="#fff"/>
    </g>
  </g>
</svg>
