<svg xmlns="http://www.w3.org/2000/svg" width="94" height="94" viewBox="0 0 94 94">
  <g id="o2" transform="translate(-529 -537)">
    <rect id="Rectangle_49" data-name="Rectangle 49" width="94" height="94" rx="7" transform="translate(529 537)" fill="#f7d716" opacity="0.1"/>
    <g id="Group_50" data-name="Group 50" transform="translate(529.298 537.298)">
      <rect id="Rectangle_57" data-name="Rectangle 57" width="94" height="94" transform="translate(-0.298 -0.298)" fill="none"/>
      <g id="Group_46" data-name="Group 46" transform="translate(17.97 18.527)">
        <path id="Path_381" data-name="Path 381" d="M43.835,33.488a24.629,24.629,0,0,1-18.008,7.329A24.629,24.629,0,0,1,7.819,33.488,24.444,24.444,0,0,1,.42,15.411a24.444,24.444,0,0,1,7.4-18.078A24.629,24.629,0,0,1,25.827-10,24.629,24.629,0,0,1,43.835-2.667a24.444,24.444,0,0,1,7.4,18.078A24.444,24.444,0,0,1,43.835,33.488ZM15.671,25.88a13.848,13.848,0,0,0,10.156,4.048A13.848,13.848,0,0,0,35.982,25.88a14.1,14.1,0,0,0,4.083-10.47,14.1,14.1,0,0,0-4.083-10.47A13.848,13.848,0,0,0,25.827.893,13.848,13.848,0,0,0,15.671,4.941a14.1,14.1,0,0,0-4.083,10.47A14.1,14.1,0,0,0,15.671,25.88Z" transform="translate(-0.42 9.996)" fill="#f7d716"/>
        <path id="Path_380" data-name="Path 380" d="M.455,7.345V5.158L6.384-.893Q8.547-3.056,8.547-4.636a2.515,2.515,0,0,0-.741-1.932A2.649,2.649,0,0,0,5.922-7.26,3.332,3.332,0,0,0,2.763-5.146L.406-6.531a5.782,5.782,0,0,1,2.26-2.576A6.162,6.162,0,0,1,5.9-9.982a5.62,5.62,0,0,1,3.84,1.409,4.849,4.849,0,0,1,1.6,3.84q0,2.587-2.921,5.512L4.561,4.647h7.1v2.7Z" transform="translate(44.957 51.199)" fill="#f7d716"/>
      </g>
    </g>
  </g>
</svg>
