<svg xmlns="http://www.w3.org/2000/svg" width="24" height="24" viewBox="0 0 24 24">
  <g id="Group_19" data-name="Group 19" transform="translate(244 -1922)">
    <rect id="Rectangle_32" data-name="Rectangle 32" width="24" height="24" transform="translate(-244 1922)" fill="none"/>
    <g id="Group_13" data-name="Group 13" transform="translate(-244.778 1921)">
      <path id="Path_362" data-name="Path 362" d="M5,19.679a5.406,5.406,0,0,1,4.449-5.388l.231-.038a19.038,19.038,0,0,1,6.2,0l.231.038a5.406,5.406,0,0,1,4.449,5.388,2.066,2.066,0,0,1-2.031,2.1H7.031A2.066,2.066,0,0,1,5,19.679Z" transform="translate(0 1.222)" fill="none" stroke="#fff" stroke-width="1.5"/>
      <path id="Path_363" data-name="Path 363" d="M16.991,7.375a4.458,4.458,0,0,1-4.537,4.375A4.458,4.458,0,0,1,7.917,7.375,4.458,4.458,0,0,1,12.454,3,4.458,4.458,0,0,1,16.991,7.375Z" transform="translate(0.324 0)" fill="none" stroke="#fff" stroke-width="1.5"/>
    </g>
  </g>
</svg>
