<svg version="1.2" xmlns="http://www.w3.org/2000/svg" viewBox="0 0 17 17" width="17" height="17"><style></style><path  d="m15.2 8.9q0.1-0.2 0.2-0.3 0.1-0.2 0.2-0.3 0.2-0.1 0.3-0.1 0.2 0 0.4 0 0 0 0.1 0 0 0 0 0 0 0 0.1 0 0 0.1 0 0.1v6c-0.1 0.2-0.3 0.1-0.5 0.1-0.8 0-0.8 0-0.8-0.8q0-1 0-1.9 0-1.1 0-2.1 0-0.4 0-0.7zm0 0.7v2.1q-3.8 0-7.6 0-3.1 0-6.3 0 0-1.1 0-2.1h3.1 1.3q0.1 0 0.2 0h9q0.2 0 0.3 0zm-13.9 0q0 1 0 2.1 0 1.2 0 2.5 0 0.2-0.2 0.2-0.5 0-0.9 0-0.2 0-0.2-0.2 0-6 0-12 0-0.2 0.2-0.2c0.8 0 1.1 0.3 1.1 1.1q0 0.4 0 0.8v3.6q0 1.1 0 2.1zm0-5.6v-0.2q0-0.2 0.1-0.4 0.1-0.1 0.2-0.3 0.2-0.1 0.3-0.1 0.2-0.1 0.4-0.1 0.2 0 0.3 0.1 0.2 0 0.3 0.2 0.1 0.1 0.2 0.2 0.1 0.2 0.1 0.4 0.2 0.7 0.4 1.4 0.1 0.2 0.1 0.4 0 0.2-0.1 0.4-0.1 0.2-0.2 0.4-0.2 0.1-0.4 0.2 1 0 1.8 0c0.1 0 0.2-0.1 0.2 0q-0.1 0.1-0.2 0.2-0.2 0.1-0.3 0.2 0 0.1-0.1 0.3 0 0.1 0 0.3 0 0.9 0 1.9h-3.1q0-1.1 0-2.1c0.1-0.6 0.5-0.8 1.2-0.8q-0.1-0.1-0.2-0.1-0.1-0.1-0.2-0.2-0.1-0.1-0.2-0.2 0-0.1-0.1-0.2-0.2-1-0.5-1.9zm13.8 4.8q0 0.4 0 0.7-0.1 0-0.3 0h-9q0 0-0.1 0h-1.2q0-0.9 0-1.9 0-0.1 0-0.3 0.1-0.1 0.1-0.3 0.1-0.1 0.3-0.2 0.1-0.1 0.2-0.1l0.1-0.1h0.1 2.8 5.7c0.9-0.1 1.3 0.3 1.3 1q0 0.6 0 1.2z"/></svg>