<svg xmlns="http://www.w3.org/2000/svg" width="40" height="40" viewBox="0 0 40 40">
  <g id="Group_71" data-name="Group 71" transform="translate(-3904 -189)">
    <circle id="Ellipse_13" data-name="Ellipse 13" cx="20" cy="20" r="20" transform="translate(3904 189)" fill="#2b2934"/>
    <g id="Group_70" data-name="Group 70" transform="translate(3908.138 193.138)">
      <rect id="Rectangle_63" data-name="Rectangle 63" width="33.103" height="33.103" transform="translate(0)" fill="none"/>
      <g id="Group_68" data-name="Group 68" transform="translate(5.708 6.849)">
        <g id="Group_66" data-name="Group 66" transform="translate(0)">
          <path id="Path_395" data-name="Path 395" d="M2451.247,495.939a1.333,1.333,0,0,1,1.488-.985.484.484,0,0,1,.334.138v8.293c-.2.256-.482.133-.725.136-1.107.014-1.107.006-1.107-1.095q0-1.322,0-2.645,0-1.434-.006-2.868Q2451.241,496.426,2451.247,495.939Z" transform="translate(-2430.239 -486.385)" fill="#53f8ff"/>
          <path id="Path_396" data-name="Path 396" d="M2148.755,527.833l.006,2.868q-5.238,0-10.476-.006-4.347,0-8.693.006,0-1.429,0-2.859l4.269,0,1.84,0c.059,0,.118.009.178.009H2148.4C2148.519,527.851,2148.637,527.839,2148.755,527.833Z" transform="translate(-2127.761 -517.306)" fill="#53f8ff"/>
          <path id="Path_397" data-name="Path 397" d="M2100.725,361.695q0,1.429,0,2.859c0,1.144,0,2.289,0,3.433,0,.232-.1.319-.321.315q-.6-.012-1.2,0c-.219,0-.31-.092-.31-.307q0-8.259,0-16.519c0-.227.1-.314.323-.317,1.041-.011,1.509.45,1.511,1.5,0,.379,0,.758.008,1.137v4.994Q2100.732,360.241,2100.725,361.695Z" transform="translate(-2098.896 -351.159)" fill="#53f8ff"/>
          <path id="Path_398" data-name="Path 398" d="M2129.6,373.83v-.282a1.388,1.388,0,0,1,1.358-1.192,1.42,1.42,0,0,1,1.265,1.206c.176.68.35,1.361.554,2.033a1.423,1.423,0,0,1-.81,1.841c.856,0,1.675,0,2.495,0,.091,0,.2-.038.264.066a1.275,1.275,0,0,0-.863,1.329c.015.874,0,1.748-.007,2.622l-4.269,0q.007-1.454.013-2.908c.146-.85.742-1.109,1.625-1.112a1.35,1.35,0,0,1-.921-.946C2130.076,375.6,2129.838,374.715,2129.6,373.83Z" transform="translate(-2127.761 -371.093)" fill="#53f8ff"/>
          <path id="Path_399" data-name="Path 399" d="M2218.142,460.043c0-1.066-.584-1.518-1.82-1.411l-7.878,0q-1.884,0-3.77-.005l-.161.028-.12.03a1.276,1.276,0,0,0-.854,1.329c.015.874,0,1.748-.007,2.622l1.684,0v0c.059,0,.117.009.176.009h12.392c.117,0,.234-.012.351-.018q.007-.487.014-.974C2218.146,461.112,2218.142,460.577,2218.142,460.043Z" transform="translate(-2197.297 -452.213)" fill="#53f8ff"/>
        </g>
      </g>
    </g>
  </g>
</svg>
