<svg xmlns="http://www.w3.org/2000/svg" width="50" height="50" viewBox="0 0 50 50">
  <g id="Group_182" data-name="Group 182" transform="translate(-5573 -1823)">
    <rect id="Rectangle_49" data-name="Rectangle 49" width="50" height="50" rx="7" transform="translate(5573 1823)" fill="#1ad2d9"/>
    <g id="Group_181" data-name="Group 181" transform="translate(46 6)">
      <rect id="Rectangle_57" data-name="Rectangle 57" width="50" height="50" transform="translate(5527 1817)" fill="none"/>
      <g id="moon" transform="translate(5537 1827)">
        <path id="Path_420" data-name="Path 420" d="M28.872,37.06a15.8,15.8,0,0,0,10.608-4.106H38.459A16.872,16.872,0,0,1,24.9,6.06a15.754,15.754,0,0,0,3.968,30.994Z" transform="translate(-13.14 -6.06)" fill="#fff"/>
        <path id="Path_421" data-name="Path 421" d="M11.589,12.892a.448.448,0,0,1-.311-.227L10.232,10.77l-1.04,1.895a.448.448,0,0,1-.311.227L6.76,13.3l1.476,1.578a.43.43,0,0,1,.12.365l-.269,2.14,1.954-.914a.43.43,0,0,1,.382,0l1.96.914-.269-2.14a.442.442,0,0,1,.114-.365L13.711,13.3Zm9.282,8.8L20.7,20.308a.442.442,0,0,1,.12-.365l.95-1.016L20.4,18.677a.466.466,0,0,1-.311-.227l-.669-1.2-.675,1.2a.442.442,0,0,1-.3.227l-1.369.257.968,1.01a.46.46,0,0,1,.12.365L17.984,21.7l1.261-.6a.46.46,0,0,1,.382,0ZM9.252,25.406a.448.448,0,0,1,.114.365l-.173,1.381,1.261-.6a.442.442,0,0,1,.191-.042.424.424,0,0,1,.191.042l1.261.6-.173-1.381a.454.454,0,0,1,.12-.365L13,24.39l-1.369-.263a.454.454,0,0,1-.311-.221l-.675-1.225-.669,1.225a.454.454,0,0,1-.311.221L8.3,24.39Z" transform="translate(8.387 -7.955)" fill="#fff"/>
      </g>
    </g>
  </g>
</svg>
