<svg xmlns="http://www.w3.org/2000/svg" width="93.321" height="93.321" viewBox="0 0 93.321 93.321">
  <g id="Group_103" data-name="Group 103" transform="translate(-1221 -533)">
    <rect id="Rectangle_51" data-name="Rectangle 51" width="93.321" height="93.321" rx="7" transform="translate(1221 533)" fill="#f900bf" opacity="0.17"/>
    <g id="Group_63" data-name="Group 63" transform="translate(1221 533)">
      <rect id="Rectangle_62" data-name="Rectangle 62" width="93.32" height="93.321" transform="translate(0 0)" fill="none"/>
      <g id="Group_62" data-name="Group 62" transform="translate(20.729 18.317)">
        <path id="Path_383" data-name="Path 383" d="M-963.637,765.007c-.574-.178-1.153-.337-1.719-.538a4.184,4.184,0,0,1-2.95-3.664,13.406,13.406,0,0,1,4.472-12.034q1.4-1.286,2.758-2.607a5.216,5.216,0,0,0,1.2-6.181A18.1,18.1,0,0,0-963,734.959a33.18,33.18,0,0,1-2.211-3.009c-1.076-1.6-.761-3.246-.046-4.864a4.078,4.078,0,0,1,4.267-2.48,28.029,28.029,0,0,1,4.8.744c1.819.424,3.6,1.021,5.389,1.549a6.338,6.338,0,0,1,4.025,9.153,7.913,7.913,0,0,1-.37.7,105.873,105.873,0,0,0-6.29,12.987,27.457,27.457,0,0,0-1.126,4.494,48.174,48.174,0,0,1-1.367,5.424,7.94,7.94,0,0,1-5.479,5.156c-.215.059-.424.127-.638.191Z" transform="translate(994.409 -706.934)" fill="#f900bf"/>
        <path id="Path_384" data-name="Path 384" d="M-953.463,756.488a35.176,35.176,0,0,1-.638,3.606,4.121,4.121,0,0,1-3.063,2.817c-4.2,1.3-7.453-1.654-8.734-4.791a19.6,19.6,0,0,1-.989-4.923c-.237-1.8-.46-3.6-.716-5.393a5.432,5.432,0,0,0-.31-1.085c-1.126-3.141-2.229-6.295-3.409-9.418-.57-1.5-1.354-2.908-1.942-4.4a6.244,6.244,0,0,1,4.513-8.6c2.352-.538,4.731-.989,7.115-1.372a11.485,11.485,0,0,1,4.34-.041c2.283.5,3.241,2.083,3.6,4.189.351,2.083-.761,3.5-2,4.881-.994,1.113-2.084,2.143-3.054,3.273a11.981,11.981,0,0,0-2.211,3.8,4.967,4.967,0,0,0,1.021,5.179c1.1,1.3,2.275,2.53,3.36,3.838A13.723,13.723,0,0,1-953.463,756.488Z" transform="translate(975.423 -713.676)" fill="#f900bf"/>
        <path id="Path_385" data-name="Path 385" d="M-965.381,724.806a4.684,4.684,0,0,1-1.1,3.168,2.093,2.093,0,0,1-3.3,0,5.262,5.262,0,0,1,0-6.445,2.1,2.1,0,0,1,3.3.009A4.775,4.775,0,0,1-965.381,724.806Z" transform="translate(985.635 -720.722)" fill="#f900bf"/>
        <path id="Path_386" data-name="Path 386" d="M-967.347,726.817a5.055,5.055,0,0,1,1.2-3.341,2.154,2.154,0,0,1,3.661.306,5.315,5.315,0,0,1-.67,6.149,2.112,2.112,0,0,1-3.374-.283A4.751,4.751,0,0,1-967.347,726.817Z" transform="translate(998.223 -714.054)" fill="#f900bf"/>
        <path id="Path_387" data-name="Path 387" d="M-968.412,724.445a6.418,6.418,0,0,1-.456,1.272,1.333,1.333,0,0,1-2.165.337,3.414,3.414,0,0,1-.565-4.107,1.358,1.358,0,0,1,2.147-.278A3.6,3.6,0,0,1-968.412,724.445Z" transform="translate(981.501 -718.793)" fill="#f900bf"/>
        <path id="Path_388" data-name="Path 388" d="M-962.111,725.28a3.6,3.6,0,0,1-1.089,2.667,1.41,1.41,0,0,1-2.384-.547,3.545,3.545,0,0,1,.816-3.656,1.413,1.413,0,0,1,2.439.57A6.289,6.289,0,0,1-962.111,725.28Z" transform="translate(1003.754 -711.687)" fill="#f900bf"/>
        <path id="Path_389" data-name="Path 389" d="M-970.181,724.054a6.3,6.3,0,0,1-.16.77,1.024,1.024,0,0,1-1.8.406,2.5,2.5,0,0,1-.619-2.566,1.034,1.034,0,0,1,1.85-.419A2.669,2.669,0,0,1-970.181,724.054Z" transform="translate(978.539 -716.792)" fill="#f900bf"/>
        <path id="Path_390" data-name="Path 390" d="M-964.8,725.891a7.373,7.373,0,0,1,.511-1.222,1.309,1.309,0,0,1,1.468-.724,1.3,1.3,0,0,1,.761,1.445,3.948,3.948,0,0,1-.529,1.522,1.213,1.213,0,0,1-1.423.67C-964.51,727.414-964.8,726.881-964.8,725.891Z" transform="translate(1007.297 -709.413)" fill="#f900bf"/>
        <path id="Path_391" data-name="Path 391" d="M-961.4,725.8a2.34,2.34,0,0,1-1.135,1.9.948.948,0,0,1-1.5-.852,2.31,2.31,0,0,1,.861-1.942,1.065,1.065,0,0,1,1.194-.264C-961.5,724.86-961.432,725.316-961.4,725.8Z" transform="translate(1009.985 -707.101)" fill="#f900bf"/>
        <path id="Path_392" data-name="Path 392" d="M-971.1,724.53c-.032.506-.118.976-.624,1.19a1.1,1.1,0,0,1-1.258-.41,2.232,2.232,0,0,1-.629-2.019.94.94,0,0,1,1.609-.611A2.394,2.394,0,0,1-971.1,724.53Z" transform="translate(975.783 -714.725)" fill="#f900bf"/>
        <path id="Path_393" data-name="Path 393" d="M-961.667,726.138c.009.656-.542,1.395-1.08,1.409-.484.018-.657-.3-.684-.72a1.439,1.439,0,0,1,1.1-1.45A.692.692,0,0,1-961.667,726.138Z" transform="translate(1012.152 -704.158)" fill="#f900bf"/>
        <path id="Path_394" data-name="Path 394" d="M-972.331,724.564c-.242.333-.383.715-.624.8a.9.9,0,0,1-.8-.31,2.476,2.476,0,0,1-.36-1.29.586.586,0,0,1,1.039-.365A6.28,6.28,0,0,1-972.331,724.564Z" transform="translate(974.12 -711.942)" fill="#f900bf"/>
      </g>
    </g>
  </g>
</svg>
