<svg xmlns="http://www.w3.org/2000/svg" width="39.331" height="39" viewBox="0 0 39.331 39">
  <g id="steps" transform="translate(-0.348)">
    <rect id="Rectangle_62" data-name="Rectangle 62" width="39.331" height="39" rx="8" transform="translate(0.348)" fill="rgba(247,25,194,0.12)"/>
    <g id="Group_62" data-name="Group 62" transform="translate(9.347 8)">
      <path id="Path_383" data-name="Path 383" d="M-966.525,740.605c-.228-.07-.457-.133-.681-.213a1.658,1.658,0,0,1-1.168-1.452,5.311,5.311,0,0,1,1.771-4.767q.553-.509,1.093-1.033a2.066,2.066,0,0,0,.477-2.449,7.176,7.176,0,0,0-1.239-1.99,13.119,13.119,0,0,1-.876-1.192,1.877,1.877,0,0,1-.018-1.927,1.616,1.616,0,0,1,1.69-.982,11.106,11.106,0,0,1,1.9.295c.721.168,1.425.4,2.135.614a2.511,2.511,0,0,1,1.595,3.626,3.124,3.124,0,0,1-.146.278,41.947,41.947,0,0,0-2.492,5.145,10.87,10.87,0,0,0-.446,1.78,19.1,19.1,0,0,1-.542,2.149,3.146,3.146,0,0,1-2.171,2.042c-.085.023-.168.05-.253.076Z" transform="translate(978.715 -717.6)" fill="#f719c2"/>
      <path id="Path_384" data-name="Path 384" d="M-965.716,736.086a13.948,13.948,0,0,1-.253,1.429,1.632,1.632,0,0,1-1.213,1.116,2.867,2.867,0,0,1-3.46-1.9,7.764,7.764,0,0,1-.392-1.95c-.094-.711-.182-1.425-.283-2.136a2.152,2.152,0,0,0-.123-.43c-.446-1.244-.883-2.494-1.351-3.731-.226-.594-.536-1.152-.769-1.743a2.474,2.474,0,0,1,1.788-3.406c.932-.213,1.874-.392,2.819-.543a4.548,4.548,0,0,1,1.719-.016,1.791,1.791,0,0,1,1.425,1.66,2.247,2.247,0,0,1-.791,1.934c-.394.441-.825.849-1.21,1.3a4.748,4.748,0,0,0-.876,1.5,1.968,1.968,0,0,0,.4,2.052c.435.515.9,1,1.331,1.52A5.438,5.438,0,0,1-965.716,736.086Z" transform="translate(974.415 -719.127)" fill="#f719c2"/>
      <path id="Path_385" data-name="Path 385" d="M-968.7,722.34a1.856,1.856,0,0,1-.435,1.255.829.829,0,0,1-1.309,0,2.084,2.084,0,0,1,0-2.553.83.83,0,0,1,1.309,0A1.892,1.892,0,0,1-968.7,722.34Z" transform="translate(976.728 -720.722)" fill="#f719c2"/>
      <path id="Path_386" data-name="Path 386" d="M-967.347,724.268a2,2,0,0,1,.477-1.323.853.853,0,0,1,1.45.121,2.106,2.106,0,0,1-.265,2.436.837.837,0,0,1-1.336-.112A1.882,1.882,0,0,1-967.347,724.268Z" transform="translate(979.579 -719.212)" fill="#f719c2"/>
      <path id="Path_387" data-name="Path 387" d="M-970.607,722.524a2.532,2.532,0,0,1-.181.5.528.528,0,0,1-.858.134,1.352,1.352,0,0,1-.224-1.627.538.538,0,0,1,.851-.11A1.428,1.428,0,0,1-970.607,722.524Z" transform="translate(975.792 -720.285)" fill="#f719c2"/>
      <path id="Path_388" data-name="Path 388" d="M-964.334,724.061a1.427,1.427,0,0,1-.432,1.057.558.558,0,0,1-.945-.217,1.4,1.4,0,0,1,.323-1.448.56.56,0,0,1,.966.226A2.49,2.49,0,0,1-964.334,724.061Z" transform="translate(980.831 -718.676)" fill="#f719c2"/>
      <path id="Path_389" data-name="Path 389" d="M-971.81,722.709a2.457,2.457,0,0,1-.063.305.406.406,0,0,1-.712.161.991.991,0,0,1-.245-1.017.41.41,0,0,1,.733-.166A1.056,1.056,0,0,1-971.81,722.709Z" transform="translate(975.121 -719.832)" fill="#f719c2"/>
      <path id="Path_390" data-name="Path 390" d="M-964.8,724.689a2.92,2.92,0,0,1,.2-.484.519.519,0,0,1,.582-.287.515.515,0,0,1,.3.573,1.566,1.566,0,0,1-.21.6.481.481,0,0,1-.564.265C-964.683,725.292-964.8,725.081-964.8,724.689Z" transform="translate(981.633 -718.161)" fill="#f719c2"/>
      <path id="Path_391" data-name="Path 391" d="M-963,725.045a.927.927,0,0,1-.45.753.375.375,0,0,1-.6-.338.915.915,0,0,1,.341-.769.422.422,0,0,1,.473-.1C-963.035,724.673-963.008,724.853-963,725.045Z" transform="translate(982.242 -717.637)" fill="#f719c2"/>
      <path id="Path_392" data-name="Path 392" d="M-972.643,723.248c-.013.2-.047.386-.247.471a.434.434,0,0,1-.5-.162.884.884,0,0,1-.249-.8.373.373,0,0,1,.638-.242A.949.949,0,0,1-972.643,723.248Z" transform="translate(974.497 -719.364)" fill="#f719c2"/>
      <path id="Path_393" data-name="Path 393" d="M-962.733,725.679c0,.26-.215.552-.428.558-.192.007-.26-.119-.271-.285a.57.57,0,0,1,.437-.574A.274.274,0,0,1-962.733,725.679Z" transform="translate(982.733 -716.971)" fill="#f719c2"/>
      <path id="Path_394" data-name="Path 394" d="M-973.412,723.734c-.1.132-.152.283-.247.316a.354.354,0,0,1-.318-.123.981.981,0,0,1-.142-.511.232.232,0,0,1,.411-.144A2.489,2.489,0,0,1-973.412,723.734Z" transform="translate(974.12 -718.734)" fill="#f719c2"/>
    </g>
  </g>
</svg>
