<svg xmlns="http://www.w3.org/2000/svg" xmlns:xlink="http://www.w3.org/1999/xlink" width="39.331" height="39" viewBox="0 0 39.331 39">
  <defs>
    <clipPath id="clip-path">
      <rect id="Rectangle_186" data-name="Rectangle 186" width="13.439" height="23.584" fill="#fff"/>
    </clipPath>
  </defs>
  <g id="temp" transform="translate(0.085)">
    <rect id="Rectangle_56" data-name="Rectangle 56" width="39.331" height="39" rx="8" transform="translate(-0.085)" fill="#fd5d5d"/>
    <g id="Group_554" data-name="Group 554" transform="translate(12.915 8)">
      <g id="Group_553" data-name="Group 553" clip-path="url(#clip-path)">
        <path id="Path_543" data-name="Path 543" d="M4.646,23.584a12.72,12.72,0,0,1-1.417-.37,5.1,5.1,0,0,1-1.391-8.659.743.743,0,0,0,.3-.655Q2.127,8.49,2.135,3.08A2.919,2.919,0,0,1,3.808.308,5.955,5.955,0,0,1,4.738,0h.737c.147.038.295.072.441.114A2.957,2.957,0,0,1,8.067,3c.009,1.366,0,2.733,0,4.1,0,2.3,0,4.591,0,6.886a.591.591,0,0,0,.244.519,5.1,5.1,0,0,1-1.28,8.7,9.939,9.939,0,0,1-1.284.341l-.177.044Zm1.15-7.85v-.27q0-4.318,0-8.635c0-.077,0-.154,0-.23a.707.707,0,0,0-.641-.646.7.7,0,0,0-.716.53,1.4,1.4,0,0,0-.021.32q0,4.329,0,8.658v.286a2.837,2.837,0,0,0-1.7,1.261,2.708,2.708,0,0,0-.348,2.078,2.806,2.806,0,0,0,5.49-.059A2.853,2.853,0,0,0,5.8,15.734" transform="translate(0)" fill="#fff"/>
        <path id="Path_544" data-name="Path 544" d="M217,70.767c-.345,0-.691.005-1.036,0a.692.692,0,1,1,.012-1.379q1.013-.008,2.026,0a.691.691,0,1,1,.011,1.379H217" transform="translate(-205.309 -66.187)" fill="#fff"/>
        <path id="Path_545" data-name="Path 545" d="M216.972,130.74c-.338,0-.675.006-1.013,0a.689.689,0,1,1-.012-1.377q1.047-.014,2.095,0a.688.688,0,1,1-.011,1.375c-.353.008-.706,0-1.059,0" transform="translate(-205.312 -123.397)" fill="#fff"/>
        <path id="Path_546" data-name="Path 546" d="M216.982,190.741c-.338,0-.675,0-1.013,0a.69.69,0,1,1-.013-1.378q1.036-.013,2.072,0a.689.689,0,1,1-.01,1.376c-.345.007-.691,0-1.036,0" transform="translate(-205.31 -180.634)" fill="#fff"/>
        <path id="Path_547" data-name="Path 547" d="M216.972,250.738c-.338,0-.675,0-1.013,0a.689.689,0,1,1-.024-1.376q1.047-.017,2.095,0a.689.689,0,1,1-.021,1.376c-.345.005-.691,0-1.036,0" transform="translate(-205.307 -237.867)" fill="#fff"/>
        <path id="Path_548" data-name="Path 548" d="M81.308,372.936a1.425,1.425,0,1,1,1.432-1.414,1.43,1.43,0,0,1-1.432,1.414" transform="translate(-76.209 -353.038)" fill="#fff"/>
      </g>
    </g>
  </g>
</svg>
