<svg xmlns="http://www.w3.org/2000/svg" width="93.321" height="93.321" viewBox="0 0 93.321 93.321">
  <g id="Group_101" data-name="Group 101" transform="translate(-1569.536 -537.143)">
    <rect id="Rectangle_52" data-name="Rectangle 52" width="93.321" height="93.321" rx="7" transform="translate(1569.536 537.143)" fill="#fd5d5d" opacity="0.1"/>
    <g id="Group_47" data-name="Group 47" transform="translate(1569.536 537.143)">
      <rect id="Rectangle_56" data-name="Rectangle 56" width="93.321" height="93.321" transform="translate(0 0)" fill="none"/>
      <path id="temprature" d="M36.167,14.518h4.839a1.21,1.21,0,0,0,0-2.42H36.167a1.21,1.21,0,0,0,0,2.42Zm-25.407-3.63a3.63,3.63,0,1,0-3.63,3.63A3.63,3.63,0,0,0,10.759,10.889ZM7.13,12.1a1.21,1.21,0,1,1,1.21-1.21A1.21,1.21,0,0,1,7.13,12.1Zm29.037-2.42h9.679a1.21,1.21,0,0,0,0-2.42H36.167a1.21,1.21,0,0,0,0,2.42ZM18.018,27.827a1.21,1.21,0,0,0-1.21-1.21h-2.42a3.63,3.63,0,0,1-3.63-3.63v-2.42a3.63,3.63,0,0,1,3.63-3.63h2.42a1.21,1.21,0,1,0,0-2.42h-2.42a6.049,6.049,0,0,0-6.049,6.049v2.42a6.049,6.049,0,0,0,6.049,6.049h2.42A1.21,1.21,0,0,0,18.018,27.827ZM45.845,16.938H36.167a1.21,1.21,0,0,0,0,2.42h9.679a1.21,1.21,0,0,0,0-2.42ZM27.7,41.257V8.469a1.21,1.21,0,0,0-2.42,0V41.257a6.049,6.049,0,1,0,2.42,0Zm-1.21,9.558a3.63,3.63,0,1,1,3.63-3.63A3.63,3.63,0,0,1,26.488,50.815Zm19.358-24.2H36.167a1.21,1.21,0,0,0,0,2.42h9.679a1.21,1.21,0,0,0,0-2.42ZM36.167,24.2h4.839a1.21,1.21,0,0,0,0-2.42H36.167a1.21,1.21,0,0,0,0,2.42Zm-3.63,13.986V6.049a6.049,6.049,0,1,0-12.1,0V38.184a10.889,10.889,0,0,0-4.5,11.712A10.768,10.768,0,0,0,23.9,57.759a11.4,11.4,0,0,0,2.589.315,10.865,10.865,0,0,0,6.074-19.89Zm-.8,15.632a8.566,8.566,0,0,1-7.259,1.6A8.445,8.445,0,0,1,22.3,39.877a1.21,1.21,0,0,0,.6-1.04V6.049a3.63,3.63,0,0,1,7.259,0V38.837a1.21,1.21,0,0,0,.6,1.04,8.421,8.421,0,0,1,1.04,13.938Z" transform="translate(22.579 18.317)" fill="#fd5d5d"/>
    </g>
  </g>
</svg>
