<svg version="1.2" xmlns="http://www.w3.org/2000/svg" viewBox="0 0 35 35" width="35" height="35"><style>.a{opacity:.1}</style><path class="a" d="m0 8c0-4.4 3.6-8 8-8h19c4.4 0 8 3.6 8 8v19c0 4.4-3.6 8-8 8h-19c-4.4 0-8-3.6-8-8z"/><path  d="m23.3 18.1q0.5 0 1 0.2 0.5 0.2 0.8 0.6 0.4 0.3 0.6 0.8 0.2 0.4 0.2 0.9v0.9c0 3.3-3.2 6.7-8.4 6.7-5.3 0-8.4-3.4-8.4-6.7v-0.9q0-0.5 0.2-0.9 0.1-0.5 0.5-0.8 0.4-0.4 0.8-0.6 0.5-0.2 1-0.2zm-5.9-10.9c1.9 0 3.6 1.1 4.3 2.9 0.7 1.7 0.3 3.7-1 5-1.3 1.3-3.3 1.7-5.1 1-1.7-0.7-2.8-2.4-2.8-4.3q0-0.9 0.3-1.7 0.4-0.9 1-1.5 0.7-0.7 1.5-1 0.9-0.4 1.8-0.4z"/></svg>