<svg xmlns="http://www.w3.org/2000/svg" width="94" height="94" viewBox="0 0 94 94">
  <g id="weight" transform="translate(-1338 -758)">
    <rect id="Rectangle_49" data-name="Rectangle 49" width="94" height="94" rx="20" transform="translate(1338 758)" fill="#fd5d5d"/>
    <g id="Group_153" data-name="Group 153" transform="translate(-4235 87)">
      <g id="Group_152" data-name="Group 152" transform="translate(5855.731 724.95)">
        <path id="Path_413" data-name="Path 413" d="M-237.251-35.95h2.266c.255.056.509.116.765.166a10.417,10.417,0,0,1,6.378,16.565c-.254.339-.534.659-.881,1.085h.715c3.039,0,6.078-.005,9.116,0a3.015,3.015,0,0,1,3.263,2.784c.13.78.275,1.557.414,2.336l2.76,15.4q1.34,7.477,2.675,14.955a8.92,8.92,0,0,1,.242,2.067,2.887,2.887,0,0,1-3.11,2.634q-22.281,0-44.562,0c-.887,0-1.774.014-2.661,0a2.9,2.9,0,0,1-2.814-3.418q1.455-8.2,2.93-16.4c1.041-5.8,2.1-11.6,3.129-17.4.367-2.065,1.37-2.953,3.452-2.954q4.5,0,9,0c.189,0,.379-.018.646-.032-.149-.181-.216-.272-.292-.355a10.389,10.389,0,0,1-2.69-6.038,10.448,10.448,0,0,1,6.652-10.685C-239.012-35.551-238.12-35.719-237.251-35.95Zm10.86,40.467a10.866,10.866,0,0,0,.008,1.115.764.764,0,0,1-.491.9,14.462,14.462,0,0,1-1.771.714,3.545,3.545,0,0,1-4.3-2.216,7.117,7.117,0,0,1-.277-3.676,3.816,3.816,0,0,1,1.054-2.143c1.206-1.247,4.173-1.454,5.318.331a1.254,1.254,0,0,0,1.92.306,1.322,1.322,0,0,0,.14-1.958A5.759,5.759,0,0,0-226-3.194a6.832,6.832,0,0,0-4.371-.8A5.733,5.733,0,0,0-235-1.246,7.455,7.455,0,0,0-236,3.81c.278,2.229,1.2,4.124,3.354,5.09a8.33,8.33,0,0,0,8.5-1.009,1.22,1.22,0,0,0,.384-.87c.042-1.225.025-2.453.015-3.68-.006-.707-.3-1-.993-1.01q-1.727-.013-3.454,0c-.772.006-1.251.431-1.255,1.087s.469,1.082,1.239,1.1C-227.626,4.525-227.046,4.517-226.391,4.517Zm-15-3.311c.435-.381.866-.721,1.254-1.106q1.164-1.156,2.287-2.355c.505-.537.431-1.19-.136-1.465a2.645,2.645,0,0,0-2.45.476Q-242.6-.888-244.755,1.47c-.146.16-.3.31-.546.558,0-.311,0-.492,0-.673,0-1.188,0-2.377,0-3.565a1.511,1.511,0,0,0-.534-1.306,1.258,1.258,0,0,0-1.385-.141,1.442,1.442,0,0,0-.747,1.469c0,3.32-.005,6.641.008,9.961a2.256,2.256,0,0,0,.19.925,1.248,1.248,0,0,0,1.434.647,1.371,1.371,0,0,0,1.028-1.388c.029-.716,0-1.434.013-2.15a.84.84,0,0,1,.119-.524c.671-.679,1.372-1.329,2.088-2.013.913,1.554,1.837,3.125,2.76,4.7.988,1.684.577,1.393,2.73,1.409a.4.4,0,0,0,.056,0,.819.819,0,0,0,.673-1.167,3.694,3.694,0,0,0-.314-.535C-238.548,5.571-239.914,3.472-241.387,1.206Zm9.832-26.429a4.567,4.567,0,0,0-4.382-4.894A4.617,4.617,0,0,0-240.7-25.81a4.631,4.631,0,0,0,4.313,4.86A4.585,4.585,0,0,0-231.555-25.223Z" fill="#fff"/>
      </g>
      <rect id="Rectangle_57" data-name="Rectangle 57" width="94" height="94" transform="translate(5573 671)" fill="none"/>
    </g>
  </g>
</svg>
